<?xml version="1.0" encoding="utf-8"?>
<!-- Generator: Adobe Illustrator 16.0.0, SVG Export Plug-In . SVG Version: 6.00 Build 0)  -->
<!DOCTYPE svg PUBLIC "-//W3C//DTD SVG 1.1//EN" "http://www.w3.org/Graphics/SVG/1.1/DTD/svg11.dtd">
<svg version="1.1" id="Livello_1" xmlns="http://www.w3.org/2000/svg" xmlns:xlink="http://www.w3.org/1999/xlink" x="0px" y="0px"
	 width="50px" height="50px" viewBox="0 0 50 50" enable-background="new 0 0 50 50" xml:space="preserve">
<g>
	<path fill="#395795" d="M25,46.434c-5.914,0-11.28-2.379-15.121-6.281c-3.902-3.842-6.28-9.207-6.28-15.121
		s2.378-11.28,6.28-15.183C13.72,5.946,19.086,3.568,25,3.568c5.915,0,11.279,2.378,15.182,6.28
		c3.842,3.902,6.221,9.269,6.221,15.183s-2.379,11.279-6.221,15.121C36.279,44.055,30.914,46.434,25,46.434z M22.622,21.799h-3.171
		v3.965h3.171v9.633h3.964v-9.633h3.963v-3.965h-3.963v-2.012c0-0.671,0.365-1.22,0.791-1.22h3.172v-3.902h-3.172
		c-2.622,0-4.755,2.317-4.755,5.183V21.799z"/>
</g>
</svg>
