<?xml version="1.0" encoding="utf-8"?>
<!-- Generator: Adobe Illustrator 16.0.0, SVG Export Plug-In . SVG Version: 6.00 Build 0)  -->
<!DOCTYPE svg PUBLIC "-//W3C//DTD SVG 1.1//EN" "http://www.w3.org/Graphics/SVG/1.1/DTD/svg11.dtd">
<svg version="1.1" id="Layer_1" xmlns="http://www.w3.org/2000/svg" xmlns:xlink="http://www.w3.org/1999/xlink" x="0px" y="0px"
	 width="60.775px" height="60.775px" viewBox="0 0 60.775 60.775" enable-background="new 0 0 60.775 60.775" xml:space="preserve">
<g>
	<polygon fill="#97ACBF" points="18.298,9.273 17.849,13.841 22.894,15.194 17.891,23.5 19.312,24.552 27.173,17.229 27.173,21.011 
		35.046,21.145 35.678,17.841 39.042,13.519 	"/>
	<path fill="#97ACBF" stroke="#FFFFFF" stroke-miterlimit="10" d="M25.673,30.713v-0.006c0-1.645,0-3.078,2-3.845v-5.423h8v5.426
		c2,0.745,3.132,2.112,3.21,3.692c2.273,0.478,3.79,1.681,3.79,3.093v8.564v9.225l0,0h-22l0,0v-9.225V33.65
		C20.673,32.371,22.673,31.268,25.673,30.713z"/>
	<rect x="17.173" y="10.939" fill="#97ACBF" width="2" height="2"/>
</g>
<ellipse fill="#97ACBF" cx="6.066" cy="5.229" rx="0.059" ry="0"/>
<circle id="XMLID_1_" fill="none" stroke="#96AAC0" stroke-width="3" stroke-miterlimit="10" cx="30.387" cy="30.388" r="28.887"/>
</svg>
