<?xml version="1.0" encoding="utf-8"?>
<!-- Generator: Adobe Illustrator 16.0.0, SVG Export Plug-In . SVG Version: 6.00 Build 0)  -->
<!DOCTYPE svg PUBLIC "-//W3C//DTD SVG 1.1//EN" "http://www.w3.org/Graphics/SVG/1.1/DTD/svg11.dtd">
<svg version="1.1" id="Layer_1" xmlns="http://www.w3.org/2000/svg" xmlns:xlink="http://www.w3.org/1999/xlink" x="0px" y="0px"
	 width="512px" height="512px" viewBox="0 0 512 512" enable-background="new 0 0 512 512" xml:space="preserve">
<g>
	<path fill="#92765E" d="M254.836,306.505c28.227,0.605,51.059-21.95,51.655-49.384c0.612-28.275-22.204-51.647-50.495-51.631
		c-27.654-0.016-50.135,22.236-50.52,49.759C205.076,283.525,227.704,305.924,254.836,306.505z"/>
	<path fill="#92765E" d="M332.943,265.26c-1.315,11.139-4.91,21.5-10.754,31.078s-13.436,17.529-22.711,23.846
		c-24.059,16.394-55.742,17.831-81.278,3.498c-12.904-7.231-23.037-17.324-30.114-30.343c-10.534-19.392-12.217-39.757-6.039-60.89
		c-7.911,0-15.772,0-23.74,0v0.67c0,36.896-0.008,73.794,0,110.689c0,5.305,4.593,9.872,9.904,9.872
		c58.512,0.009,117.016,0.009,175.528,0c5.36,0,9.929-4.552,9.929-9.903c0.008-36.849,0-73.713,0-110.551v-0.768h-23.797
		C333.23,243.196,334.26,254.122,332.943,265.26z"/>
	<path fill="#92765E" d="M310.52,188.647c1.414,4.151,5.223,6.701,9.881,6.726c3.783,0,7.574-0.008,11.358-0.008v-0.049
		c4.103,0,8.214,0.082,12.324-0.016c5.278-0.131,9.577-4.658,9.577-9.945c0-7.87,0-15.747,0-23.617
		c0-5.647-4.471-10.133-10.102-10.142c-7.853,0-15.707-0.008-23.56,0c-5.623,0.008-10.101,4.511-10.101,10.158
		c-0.008,7.804-0.033,15.609,0.024,23.413C309.932,186.335,310.152,187.544,310.52,188.647z"/>
	<path fill="#92765E" d="M256,7.098C118.535,7.098,7.098,118.535,7.098,256S118.535,504.902,256,504.902
		S504.902,393.465,504.902,256S393.465,7.098,256,7.098z M380.661,355.766c-0.181,1.111-0.343,2.224-0.548,3.343
		c-1.994,10.239-10.313,18.729-20.495,20.896c-1.283,0.278-2.582,0.466-3.882,0.678H156.264c-0.531-0.072-1.07-0.18-1.594-0.244
		c-10.975-1.414-20.193-9.79-22.637-20.594c-0.286-1.259-0.466-2.542-0.695-3.8V156.008c0.074-0.466,0.172-0.932,0.237-1.397
		c1.577-11.196,9.749-20.087,20.798-22.604c1.185-0.27,2.403-0.433,3.604-0.654h200.044c0.465,0.082,0.914,0.188,1.389,0.245
		c11.311,1.553,20.527,10.223,22.718,21.394c0.204,1.087,0.36,2.19,0.531,3.277v199.497H380.661z"/>
</g>
</svg>
