<?xml version="1.0" encoding="utf-8"?>
<!-- Generator: Adobe Illustrator 16.0.0, SVG Export Plug-In . SVG Version: 6.00 Build 0)  -->
<!DOCTYPE svg PUBLIC "-//W3C//DTD SVG 1.1//EN" "http://www.w3.org/Graphics/SVG/1.1/DTD/svg11.dtd">
<svg version="1.1" id="Layer_1" xmlns="http://www.w3.org/2000/svg" xmlns:xlink="http://www.w3.org/1999/xlink" x="0px" y="0px"
	 width="59.542px" height="59.542px" viewBox="0 0 59.542 59.542" enable-background="new 0 0 59.542 59.542" xml:space="preserve">
<g>
	<line fill="#97ACBF" x1="24.274" y1="21.883" x2="25.695" y2="22.935"/>
	<path fill="#97ACBF" d="M24.681,7.656"/>
</g>
<ellipse fill="#97ACBF" cx="5.45" cy="4.612" rx="0.059" ry="0"/>
<circle id="XMLID_1_" fill="none" stroke="#7B8C93" stroke-width="1.767" stroke-miterlimit="10" cx="29.771" cy="29.771" r="28.887"/>
<ellipse transform="matrix(0.9604 -0.2786 0.2786 0.9604 -8.178 10.2751)" fill="#7B8C93" cx="32.057" cy="33.907" rx="12.333" ry="18.416"/>
<path fill="#7B8C93" d="M27.854,15.261c0.995,1.549,0.546,3.61-1.002,4.605l-2.805,1.802c-1.549,0.995-3.611,0.546-4.605-1.002
	l-0.181-0.281c-0.995-1.549-0.546-3.61,1.002-4.605l2.805-1.802c1.549-0.995,3.611-0.546,4.605,1.002L27.854,15.261z"/>
<polyline fill="none" stroke="#7B8C93" stroke-miterlimit="10" points="23.807,14.198 23.932,10.448 25.932,8.573 "/>
<polyline fill="none" stroke="#7B8C93" stroke-miterlimit="10" points="27.932,16.198 28.057,12.448 30.432,11.073 "/>
<polyline fill="none" stroke="#7B8C93" stroke-miterlimit="10" points="19.75,16.278 16.481,14.435 13.84,15.17 "/>
<polyline fill="none" stroke="#7B8C93" stroke-miterlimit="10" points="20.75,22.278 17.481,20.435 14.84,21.17 "/>
<polyline fill="none" stroke="#7B8C93" stroke-miterlimit="10" points="21.932,39.448 20.682,43.823 22.932,50.198 "/>
<polyline fill="none" stroke="#7B8C93" stroke-width="0.9236" stroke-miterlimit="10" points="44.055,33.313 46.805,34.814 
	49.434,41.833 "/>
<line fill="none" stroke="#000FFF" stroke-miterlimit="10" x1="20.557" y1="17.823" x2="20.557" y2="17.823"/>
</svg>
