<?xml version="1.0" encoding="utf-8"?>
<!-- Generator: Adobe Illustrator 16.0.0, SVG Export Plug-In . SVG Version: 6.00 Build 0)  -->
<!DOCTYPE svg PUBLIC "-//W3C//DTD SVG 1.1//EN" "http://www.w3.org/Graphics/SVG/1.1/DTD/svg11.dtd">
<svg version="1.1" xmlns="http://www.w3.org/2000/svg" xmlns:xlink="http://www.w3.org/1999/xlink" x="0px" y="0px"
	 width="1080.924px" height="1072.824px" viewBox="0 0 1080.924 1072.824" enable-background="new 0 0 1080.924 1072.824"
	 xml:space="preserve">
<g id="Layer_1">
	<path id="XMLID_1_" fill="none" stroke="#E7B32C" stroke-width="53.1568" stroke-miterlimit="10" d="M1054.346,536.412
		c0,281.573-230.049,509.833-513.875,509.833c-283.814,0-513.893-228.261-513.893-509.833
		c0-281.572,230.079-509.833,513.893-509.833C824.297,26.579,1054.346,254.84,1054.346,536.412z"/>
</g>
<g id="Layer_2">
	<circle fill="#E7B32C" cx="539.962" cy="532.912" r="206.667"/>
</g>
<g id="Layer_3">
	<path fill="#E7B32C" d="M565.774,285.373c-2.037-1.585-8.146-29.478-5.149-52.014c12.861-96.748-30.859-103.78-42.848-103.78
		c-11.869,0,20.153,8.381,2.806,102.762c-4.254,23.148,1.15,52.011,3.104,55.062L565.774,285.373z"/>
	<path fill="#E7B32C" d="M415.344,317.476c-2.58-0.084-23.916-19.06-34.738-39.053c-46.462-85.83-85.967-65.821-95.665-58.775
		c-9.603,6.977,21.23-5.065,62.672,81.487c10.165,21.228,31.502,41.401,34.876,42.722L415.344,317.476z"/>
	<path fill="#E7B32C" d="M312.514,431.869c-2.137,1.448-30.551-1.362-51.059-11.176c-88.037-42.128-108.236-2.721-111.941,8.681
		c-3.668,11.289,14.199-16.577,98.6,29.087c20.701,11.199,49.821,14.978,53.327,14.063L312.514,431.869z"/>
	<path fill="#E7B32C" d="M296.562,584.857c-0.878,2.428-25.517,16.855-47.876,20.97c-95.986,17.665-89.164,61.419-85.461,72.82
		c3.668,11.289,1.744-21.757,96.866-34.423c23.33-3.108,49.11-17.167,51.409-19.968L296.562,584.857z"/>
	<path fill="#E7B32C" d="M373.581,718.002c0.717,2.48-10.736,28.635-26.407,45.106c-67.271,70.71-36.034,102.099-26.337,109.146
		c9.604,6.977-11.377-18.627,58.134-84.785c17.048-16.229,29.64-42.755,29.854-46.371L373.581,718.002z"/>
	<path fill="#E7B32C" d="M514.151,780.45c2.037,1.586,8.145,29.477,5.148,52.014c-12.861,96.747,30.859,103.78,42.848,103.781
		c11.869,0-20.153-8.383-2.805-102.763c4.254-23.149-1.152-52.011-3.104-55.063L514.151,780.45z"/>
	<path fill="#E7B32C" d="M664.581,748.345c2.58,0.086,23.914,19.06,34.737,39.054c46.462,85.83,85.966,65.822,95.665,58.775
		c9.604-6.977-21.23,5.064-62.671-81.487c-10.165-21.229-31.503-41.4-34.876-42.724L664.581,748.345z"/>
	<path fill="#E7B32C" d="M767.41,633.952c2.138-1.446,30.55,1.363,51.058,11.178c88.039,42.128,108.238,2.722,111.942-8.681
		c3.669-11.288-14.198,16.576-98.599-29.087c-20.702-11.201-49.82-14.977-53.328-14.065L767.41,633.952z"/>
	<path fill="#E7B32C" d="M783.362,480.964c0.879-2.427,25.516-16.854,47.876-20.968c95.987-17.666,89.167-61.419,85.461-72.821
		c-3.667-11.289-1.743,21.755-96.865,34.423c-23.331,3.106-49.108,17.167-51.41,19.966L783.362,480.964z"/>
	<path fill="#E7B32C" d="M706.343,347.818c-0.716-2.48,10.736-28.633,26.407-45.104c67.271-70.712,36.037-102.101,26.337-109.146
		c-9.603-6.978,11.378,18.625-58.132,84.784c-17.05,16.227-29.639,42.754-29.856,46.371L706.343,347.818z"/>
</g>
</svg>
