<?xml version="1.0" encoding="utf-8"?>
<!-- Generator: Adobe Illustrator 16.0.0, SVG Export Plug-In . SVG Version: 6.00 Build 0)  -->
<!DOCTYPE svg PUBLIC "-//W3C//DTD SVG 1.1//EN" "http://www.w3.org/Graphics/SVG/1.1/DTD/svg11.dtd">
<svg version="1.1" xmlns="http://www.w3.org/2000/svg" xmlns:xlink="http://www.w3.org/1999/xlink" x="0px" y="0px"
	 width="1080.924px" height="1072.824px" viewBox="0 0 1080.924 1072.824" enable-background="new 0 0 1080.924 1072.824"
	 xml:space="preserve">
<g id="Layer_2">
	<path fill="#E5343D" d="M618.688,646.367V153.268c0-6.16-4.873-10.689-11.5-10.689h-135c-6.627,0-12.5,4.529-12.5,10.689v487.385
		c-66,26.406-113.25,87.907-113.25,159.568c0,95.742,83.624,173.357,186.625,173.357s186.312-77.615,186.312-173.357
		C719.375,733.313,678.688,675.266,618.688,646.367z"/>
	<rect x="540.688" y="235.579" fill="#FFFFFF" width="78" height="20"/>
	<rect x="540.688" y="375.579" fill="#FFFFFF" width="78" height="20"/>
	<rect x="540.688" y="516.579" fill="#FFFFFF" width="78" height="20"/>
</g>
<g id="Layer_1">
	<path id="XMLID_1_" fill="none" stroke="#E5343D" stroke-width="53.1568" stroke-miterlimit="10" d="M1054.346,536.412
		c0,281.573-230.049,509.833-513.875,509.833c-283.814,0-513.893-228.261-513.893-509.833
		c0-281.572,230.079-509.833,513.893-509.833C824.297,26.579,1054.346,254.84,1054.346,536.412z"/>
</g>
</svg>
