<?xml version="1.0" encoding="utf-8"?>
<!-- Generator: Adobe Illustrator 16.0.0, SVG Export Plug-In . SVG Version: 6.00 Build 0)  -->
<!DOCTYPE svg PUBLIC "-//W3C//DTD SVG 1.1//EN" "http://www.w3.org/Graphics/SVG/1.1/DTD/svg11.dtd">
<svg version="1.1" xmlns="http://www.w3.org/2000/svg" xmlns:xlink="http://www.w3.org/1999/xlink" x="0px" y="0px"
	 width="1080.924px" height="1072.824px" viewBox="0 0 1080.924 1072.824" enable-background="new 0 0 1080.924 1072.824"
	 xml:space="preserve">
<g id="Layer_2">
	<g>
		<path fill="#88C4D7" d="M682.19,283.341"/>
	</g>
	<g>
		<line fill="#88C4D7" x1="334.39" y1="430.475" x2="334.502" y2="430.427"/>
	</g>
	<g>
		<line fill="#88C4D7" x1="344.6" y1="457.666" x2="344.45" y2="457.729"/>
	</g>
	<g>
		<path fill="#88C4D7" d="M446.704,820.073l27.458,52.778c0.002,0.005,0.007,0.012,0.011,0.016l22.792,11.35
			c0.005,0.001,0.014-0.001,0.019-0.003l360.248-152.399c0.005-0.002,0.012-0.008,0.015-0.012l7.416-24.128
			c0-0.005-0.002-0.014-0.004-0.019l-63.32-128.87c-0.003-0.005-0.002-0.013,0.001-0.017c0,0,122.469-167.292,75.565-278.165
			c-48.9-115.596-167.217-176.022-264.264-134.968c-60.322,25.519-106.525,152.769-106.525,152.769
			c-0.002,0.005-0.007,0.011-0.013,0.013l-192.057,81.249c-0.005,0.002-0.012,0.007-0.016,0.012l-7.453,24.145
			c0,0.005,0.002,0.014,0.004,0.019l14.014,37.814c0.002,0.005,0.007,0.007,0.013,0.005l350.348-148.211
			c0.005-0.002,0.007-0.008,0.004-0.013l-17.787-36.218c-0.003-0.005-0.008-0.012-0.012-0.016l-22.48-11.482
			c-0.005,0-0.014,0.001-0.019,0.003l-97.279,41.153c-0.005,0.002-0.007,0-0.005-0.005c0,0,42.883-95.317,90.217-115.34
			c85.042-35.977,188.715,16.973,231.567,118.269c41.1,97.154-66.213,243.746-66.213,243.746c-0.003,0.004-0.008,0.004-0.011-0.001
			L670.971,313.456c-0.003-0.005-0.009-0.007-0.014-0.005L320.609,461.662c-0.005,0.002-0.007,0.008-0.005,0.013l104.808,254.093
			c0.002,0.005,0,0.007-0.005,0.005L100.033,589.984c-0.005-0.002-0.008,0.001-0.008,0.006l4.662,27.579
			c0,0.005,0.005,0.012,0.01,0.015L446.704,820.073"/>
	</g>
	
		<rect x="317.688" y="424.579" transform="matrix(0.9379 -0.347 0.347 0.9379 -116.4464 209.8214)" fill="#FFFFFF" width="420" height="11"/>
</g>
<g id="Layer_1">
	<path id="XMLID_1_" fill="none" stroke="#88C4D7" stroke-width="53.1568" stroke-miterlimit="10" d="M1054.346,536.412
		c0,281.573-230.049,509.833-513.875,509.833c-283.814,0-513.893-228.261-513.893-509.833
		c0-281.572,230.079-509.833,513.893-509.833C824.297,26.579,1054.346,254.84,1054.346,536.412z"/>
</g>
</svg>
