<?xml version="1.0" encoding="utf-8"?>
<!-- Generator: Adobe Illustrator 16.0.0, SVG Export Plug-In . SVG Version: 6.00 Build 0)  -->
<!DOCTYPE svg PUBLIC "-//W3C//DTD SVG 1.1//EN" "http://www.w3.org/Graphics/SVG/1.1/DTD/svg11.dtd">
<svg version="1.1" id="Layer_1" xmlns="http://www.w3.org/2000/svg" xmlns:xlink="http://www.w3.org/1999/xlink" x="0px" y="0px"
	 width="286.126px" height="297.457px" viewBox="-5.311 0 286.126 297.457" enable-background="new -5.311 0 286.126 297.457"
	 xml:space="preserve">
<path fill="#9F3255" stroke="#9F3255" stroke-width="2" stroke-miterlimit="10" d="M21.095,303.04l-7.25,0.417l-0.686-64.973
	c-0.334-8.69-0.498-10.176-0.498-13.557l6.146-0.037c0.936,1.779,1.633,2.488,1.966,4.609c3.81-4.131,8.686-6.197,14.629-6.197
	c6.614,0,11.726,2.211,15.335,6.631c3.604,4.422,5.411,9.586,5.411,15.498c0,6.312-1.94,11.678-5.815,16.101
	c-3.874,4.422-9.385,6.629-16.531,6.629c-5.146,0-9.288-1.265-12.427-3.789v15.688L21.095,303.04z M21.377,235.275v14.461
	c0,3.675,1.004,6.687,3.007,9.041c2.005,2.353,5.076,3.529,9.22,3.529c2.536,0,4.722-0.49,6.562-1.463
	c1.836-0.977,3.256-2.283,4.259-3.922c1.001-1.635,1.736-3.369,2.205-5.205c0.468-1.838,0.7-3.76,0.7-5.771
	c0-4.477-1.168-8.317-3.509-11.538c-2.337-3.212-5.979-4.82-10.919-4.82C28.958,229.587,25.117,231.484,21.377,235.275z"/>
<path fill="#9F3255" stroke="#9F3255" stroke-width="2" stroke-miterlimit="10" d="M75.86,272.034h-8.315v-60.609
	c0-1.68,5.109-4.991,8.315-4.991V272.034L75.86,272.034z"/>
<path fill="#9F3255" stroke="#9F3255" stroke-width="2" stroke-miterlimit="10" d="M131.751,264.735l1.706,4.475
	c-0.473,0.174-1.224,0.443-2.255,0.818c-1.038,0.378-1.875,0.66-2.51,0.861c-0.632,0.197-1.415,0.4-2.347,0.6
	c-0.941,0.203-1.772,0.305-2.509,0.305c-1.938,0-3.526-0.543-4.762-1.639c-1.235-1.086-2.021-2.49-2.352-4.213
	c-4.476,4.016-9.493,6.023-15.034,6.023c-4.009,0-7.301-1.019-9.87-3.06c-2.572-2.036-3.856-4.774-3.856-8.223
	c0-9.695,9.521-14.604,28.56-14.72v-4.562c0-5.738-2.772-8.609-8.317-8.609c-2.604,0-5.245,0.457-7.916,1.377
	c-2.674,0.918-4.812,2.154-6.413,3.703l-4.107-5.08c5.408-3.729,11.791-5.596,19.14-5.596c5.212,0,9.171,1.219,11.873,3.656
	c2.706,2.441,4.058,5.926,4.058,10.463v21.354c0,1.146,0.15,1.979,0.451,2.496c0.301,0.515,0.886,0.773,1.754,0.773
	C127.844,265.942,129.413,265.54,131.751,264.735z M116.523,254.301v-2.737c-2.473,0-4.595,0.071-6.369,0.211
	c-1.765,0.146-3.837,0.474-6.207,0.985c-2.372,0.517-4.212,1.412-5.514,2.697s-1.954,2.922-1.954,4.922
	c0,1.822,0.72,3.195,2.154,4.104c1.439,0.912,3.357,1.371,5.763,1.371c3.405,0,6.277-1.186,8.622-3.557
	C115.351,259.933,116.523,257.269,116.523,254.301z"/>
<path fill="#9F3255" stroke="#9F3255" stroke-width="2" stroke-miterlimit="10" d="M180.163,270.948h-8.215V244.69
	c0-1.32-0.034-2.412-0.104-3.271c-0.062-0.856-0.246-1.838-0.549-2.926c-0.301-1.094-0.733-1.969-1.303-2.631
	c-0.566-0.656-1.404-1.217-2.506-1.676c-1.104-0.461-2.422-0.693-3.96-0.693c-4.406,0-8.949,1.898-13.629,5.687v31.771h-8.216
	v-30.306c0-5.513-1.102-9.56-3.307-12.144l9.121-1.028c1.001,2.18,1.635,4.217,1.903,6.11c5.009-4.305,10.187-6.455,15.529-6.455
	c5.272,0,9.131,1.36,11.569,4.088c2.439,2.728,3.661,6.439,3.661,11.147v28.585H180.163z"/>
<path fill="#9F3255" stroke="#9F3255" stroke-width="2" stroke-miterlimit="10" d="M215.089,264.513l1.399,4.823
	c-3.938,1.031-7.239,1.545-9.912,1.545c-4.074,0-7.005-0.93-8.771-2.793c-1.77-1.864-2.656-4.635-2.656-8.312v-27.205h-7.414v-4.307
	c5.812-0.111,9.688-4.561,11.621-13.344h6.316c-1.474,5.164-2.205,9.242-2.205,12.227h13.021l-1.798,5.424h-11.225v27.383
	c0,1.834,0.381,3.197,1.152,4.086c0.769,0.892,2.148,1.336,4.156,1.336C210.312,265.375,212.42,265.088,215.089,264.513z"/>
<path fill="#9F3255" stroke="#9F3255" stroke-width="2" stroke-miterlimit="10" d="M224.13,268.526l3.51-5.254
	c3.875,2.299,7.414,3.443,10.62,3.443c2.743,0,5.112-0.455,7.112-1.377c2.013-0.918,3.009-2.469,3.009-4.646
	c0-1.723-0.8-3.229-2.403-4.521c-1.604-1.289-3.558-2.395-5.858-3.315c-2.307-0.912-4.6-1.873-6.864-2.881
	c-2.274-1.004-4.213-2.365-5.812-4.091c-1.604-1.721-2.403-3.786-2.403-6.196c0-4.019,1.703-7.104,5.112-9.258
	c3.4-2.15,7.55-3.226,12.42-3.226c5.079,0,9.521,1.002,13.327,3.014l-2.908,5.509c-3.139-2.065-6.312-3.101-9.515-3.101
	c-2.605,0-4.914,0.461-6.916,1.377c-2.005,0.92-3.008,2.414-3.008,4.478c0,1.724,0.803,3.228,2.406,4.521
	c1.604,1.295,3.56,2.383,5.858,3.274c2.311,0.89,4.613,1.836,6.919,2.841c2.302,1.006,4.256,2.396,5.858,4.176
	c1.604,1.778,2.405,3.903,2.405,6.369c0,4.25-1.686,7.391-5.062,9.428c-3.371,2.037-7.667,3.059-12.874,3.059
	C234.584,272.144,229.608,270.937,224.13,268.526z"/>
<path fill="#9F3255" stroke="#9F3255" stroke-width="2" stroke-miterlimit="10" d="M39.074,187.562l4.167-7.166l13.438-27.332
	l-8.333,0.167l-9.5,25l0,0l-14.406-24.066l-7.427,0.066C17.014,154.229,39.007,187.7,39.074,187.562z"/>
<path fill="#9F3255" stroke="#9F3255" stroke-width="2" stroke-miterlimit="10" d="M88.435,198.649
	c-7.143,0-12.739-2.258-16.786-6.762c-4.051-4.5-6.072-9.938-6.072-16.301c0-6.303,2.045-11.719,6.123-16.254
	c4.08-4.537,9.656-6.804,16.735-6.804c7.209,0,12.838,2.236,16.886,6.714c4.047,4.479,6.073,9.926,6.073,16.344
	c0,6.422-2.026,11.869-6.073,16.346C101.273,196.411,95.644,198.649,88.435,198.649z M88.435,193.081
	c3.333,0,6.102-0.973,8.315-2.916c2.21-1.942,3.709-4.166,4.49-6.668c0.781-2.504,1.173-5.143,1.173-7.91
	c0-2.767-0.409-5.403-1.228-7.903c-0.814-2.507-2.331-4.729-4.544-6.673c-2.205-1.942-4.944-2.92-8.208-2.92
	c-3.269,0-6.008,0.978-8.219,2.92c-2.209,1.941-3.705,4.166-4.485,6.673c-0.779,2.5-1.174,5.137-1.174,7.903
	c0,2.595,0.439,5.156,1.324,7.688c0.884,2.531,2.433,4.8,4.643,6.802C82.737,192.081,85.374,193.081,88.435,193.081z"/>
<path fill="#9F3255" stroke="#9F3255" stroke-width="2" stroke-miterlimit="10" d="M194.003,198.06l-7.291-0.576l0.134-30.729
	c0-5.277-0.851-5.539-2.729-8.689l-2.756-3.463c2.63-1.695,10.366,3.678,10.718,6.613c1.884-2.518,6.641-4.953,10.114-5.58
	c4.163-0.752,12.888-0.297,19.222,1.893l-4.922,2.537c-9.976-1.793-20.559,3.78-22.985,6.84L194.003,198.06z"/>
<path fill="#9F3255" stroke="#9F3255" stroke-width="2" stroke-miterlimit="10" d="M54.881,139.692h-8.463v-27.625
	c0-1.743-0.069-3.158-0.208-4.245c-0.136-1.08-0.467-2.268-0.979-3.562c-0.517-1.293-1.395-2.274-2.632-2.934
	c-1.238-0.662-2.824-0.993-4.75-0.993c-3.99,0-8.705,1.984-14.138,5.956v33.401H15.25c0,0,0.241-77.438,0.241-77.557l7.849-1.71
	l0.373,39.727c5.229-4.335,10.425-6.499,15.581-6.499c10.393,0,15.589,5.325,15.589,15.979L54.881,139.692L54.881,139.692z"/>
<path fill="#9F3255" stroke="#9F3255" stroke-width="2" stroke-miterlimit="10" d="M87.237,140.239
	c-7.015,0-12.51-2.195-16.483-6.585c-3.976-4.393-5.96-9.685-5.96-15.886c0-6.139,2.002-11.418,6.013-15.841
	c4.007-4.418,9.484-6.628,16.432-6.628c7.08,0,12.609,2.182,16.584,6.543c3.979,4.362,5.962,9.67,5.962,15.927
	c0,6.258-1.984,11.567-5.962,15.928C99.846,138.06,94.317,140.239,87.237,140.239z M87.237,134.818c3.272,0,5.998-0.951,8.168-2.845
	c2.169-1.893,3.64-4.06,4.409-6.499c0.767-2.439,1.151-5.008,1.151-7.707c0-2.694-0.4-5.265-1.203-7.702
	c-0.803-2.439-2.289-4.609-4.455-6.503c-2.174-1.894-4.861-2.839-8.07-2.839c-3.203,0-5.896,0.947-8.064,2.839
	c-2.171,1.894-3.644,4.063-4.408,6.503c-0.769,2.438-1.152,5.008-1.152,7.702c0,2.527,0.435,5.022,1.303,7.492
	c0.863,2.468,2.386,4.681,4.561,6.628C81.644,133.84,84.23,134.818,87.237,134.818z"/>
<path fill="#9F3255" stroke="#9F3255" stroke-width="2" stroke-miterlimit="10" d="M166.293,132.833l4.074,2.075
	c-1.859,1.196-3.586,2.851-4.622,3.222c-1.035,0.375-1.874,0.66-2.505,0.861c-0.638,0.199-1.425,0.401-2.357,0.603
	c-0.934,0.203-1.768,0.303-2.502,0.303c-1.938,0-3.511-0.547-4.713-1.638c-1.205-1.089-1.971-2.495-2.304-4.217
	c-4.676,4.131-9.788,6.197-15.328,6.197c-5.28,0-9.141-1.363-11.576-4.088c-2.438-2.725-3.659-6.444-3.659-11.148v-23.591
	c0-0.055,0.243-4.914,0.243-5.03l8.075-0.051v26.347c0,1.55,0.084,2.871,0.25,3.962c0.167,1.088,0.498,2.234,1.005,3.441
	c0.498,1.204,1.347,2.137,2.558,2.798c1.198,0.66,2.699,0.989,4.504,0.989c3.74,0,6.954-1.015,9.623-3.056
	c2.665-2.034,4.005-4.662,4.005-7.876V101.41c0-0.054-0.02-2.84-0.243-3.649c-0.009-0.021,0.038-1.3,0.038-1.417l8.525-0.014v34.44
	c0,1.145,0.148,1.979,0.45,2.497c0.297,0.513,0.883,0.774,1.753,0.774C162.389,134.042,163.953,133.639,166.293,132.833z"/>
<path fill="#9F3255" stroke="#9F3255" stroke-width="2" stroke-miterlimit="10" d="M179.296,136.471l1.049-5.079
	c3.871,2.296,9.876,3.271,13.085,3.271c2.734,0,5.106-0.462,7.114-1.382c1.998-0.915,3.006-2.465,3.006-4.647
	c0-1.721-0.803-3.227-2.406-4.518c-1.605-1.294-3.556-2.395-5.864-3.316c-2.303-0.916-4.591-1.876-6.86-2.883
	c-2.272-1.003-4.211-2.37-5.814-4.088c-1.6-1.724-2.403-3.79-2.403-6.201c0-4.016,1.707-7.103,5.112-9.255
	c3.409-2.152,7.546-3.229,12.424-3.229c5.077,0,9.516,1.004,13.332,3.014l-2.91,5.506c-3.138-2.065-6.312-3.096-9.52-3.096
	c-2.609,0-4.908,0.461-6.914,1.376c-2.005,0.919-3.003,2.41-3.003,4.476c0,1.721,0.796,3.231,2.399,4.52
	c1.604,1.292,3.562,2.386,5.864,3.271c2.303,0.892,4.609,1.84,6.912,2.844c2.305,1.004,4.259,2.397,5.857,4.172
	c1.605,1.779,2.409,3.906,2.409,6.374c0,4.248-1.688,7.392-5.058,9.424c-3.375,2.039-7.671,3.059-12.878,3.059
	C189.752,140.086,184.121,139.689,179.296,136.471z"/>
<path fill="#9F3255" stroke="#9F3255" stroke-width="2" stroke-miterlimit="10" d="M254.584,130.167l3.705,5.183
	c-4.61,3.264-10.223,4.889-16.839,4.889c-7.209,0-12.874-2.079-16.982-6.242c-4.106-4.16-6.16-9.425-6.16-15.796
	c0-3.904,0.751-7.547,2.253-10.935c1.504-3.388,3.94-6.225,7.312-8.523c3.374-2.295,7.399-3.445,12.077-3.445
	c5.814,0,10.487,1.477,14.026,4.435c3.546,2.955,5.312,6.905,5.312,11.839c0,3.672-1.703,5.505-5.106,5.505h-27.055v0.862
	c0,4.109,1.285,7.836,3.854,11.175c2.565,3.344,6.132,5.012,10.67,5.012c2.205,0,4.511-0.359,6.916-1.074
	C250.975,132.335,252.978,131.372,254.584,130.167z M227.723,111.742h20.946c0.736,0,1.202-0.13,1.403-0.388
	c0.198-0.258,0.3-0.733,0.3-1.421c0-2.582-0.87-4.763-2.604-6.541c-1.738-1.776-4.074-2.669-7.015-2.669
	c-3.209,0-6.03,1.12-8.465,3.357C229.847,106.318,228.327,108.874,227.723,111.742z"/>
<path fill="#9F3255" stroke="#9F3255" stroke-width="2" stroke-miterlimit="10" d="M87.237,140.239
	c-7.015,0-12.51-2.195-16.483-6.585c-3.976-4.393-5.96-9.685-5.96-15.886c0-6.139,2.002-11.418,6.013-15.841
	c4.007-4.418,9.484-6.628,16.432-6.628c7.08,0,12.609,2.182,16.584,6.543c3.979,4.362,5.962,9.67,5.962,15.927
	c0,6.258-1.984,11.567-5.962,15.928C99.846,138.06,94.317,140.239,87.237,140.239z M87.237,134.818c3.272,0,5.998-0.951,8.168-2.845
	c2.169-1.893,3.64-4.06,4.409-6.499c0.767-2.439,1.151-5.008,1.151-7.707c0-2.694-0.4-5.265-1.203-7.702
	c-0.803-2.439-2.289-4.609-4.455-6.503c-2.174-1.894-4.861-2.839-8.07-2.839c-3.203,0-5.896,0.947-8.064,2.839
	c-2.171,1.894-3.644,4.063-4.408,6.503c-0.769,2.438-1.152,5.008-1.152,7.702c0,2.527,0.435,5.022,1.303,7.492
	c0.863,2.468,2.386,4.681,4.561,6.628C81.644,133.84,84.23,134.818,87.237,134.818z"/>
<path fill="#9F3255" stroke="#9F3255" stroke-width="2" stroke-miterlimit="10" d="M168.747,191.506l4.698,1.957
	c-0.466,0.179-4.21,2.97-5.245,3.343c-1.038,0.373-1.873,0.657-2.509,0.858c-0.637,0.199-1.424,0.4-2.356,0.604
	c-0.932,0.204-1.769,0.301-2.502,0.301c-1.938,0-3.509-0.547-4.712-1.637c-1.208-1.089-1.973-2.494-2.304-4.216
	c-4.677,4.132-9.788,6.195-15.327,6.195c-5.28,0-9.141-1.363-11.577-4.088c-2.438-2.727-3.656-6.445-3.656-11.148v-23.592
	c0-0.053,0.241-4.912,0.241-5.028l8.073-0.052v26.349c0,1.549,0.087,2.871,0.25,3.963c0.165,1.088,0.5,2.233,1.008,3.438
	c0.497,1.207,1.347,2.142,2.558,2.8c1.199,0.657,2.699,0.987,4.504,0.987c3.74,0,6.951-1.016,9.623-3.057
	c2.667-2.033,4.006-4.66,4.006-7.877v-21.523c0-0.053-0.019-2.84-0.246-3.647c-0.007-0.022,0.04-1.304,0.04-1.418l8.525-0.015
	v34.439c0,1.146,0.149,1.979,0.449,2.494c0.298,0.516,0.884,0.777,1.754,0.777C164.843,192.717,166.407,192.313,168.747,191.506z"/>
<polyline fill="none" stroke="#9F3255" stroke-width="10" stroke-miterlimit="10" points="14.157,292.396 275.815,291.979 
	275.815,69.677 142.373,5.539 16.319,65.098 "/>
<g>
	<path fill="#9F3255" d="M13.217,203.161c0.011,0.024-0.174,0.09-0.374,0.521c-0.208,0.425-0.307,1.347-0.12,2.435
		c0.351,2.166,1.539,4.778,3.237,6.586c1.694,1.85,3.912,2.809,6.199,2.454c1.157-0.166,2.316-0.509,3.42-1.238
		c1.102-0.726,2.144-1.789,3.094-3.131c1.906-2.695,3.434-6.484,4.655-10.357c1.223-3.894,2.15-7.884,2.87-11.382
		c0.719-3.512,1.237-6.531,1.585-8.655c0.338-2.144,0.531-3.363,0.531-3.363l5.592,4.611c0,0-0.448,1.327-0.943,3.498
		c-0.509,2.162-1.381,5.159-2.394,8.743c-1.014,3.576-2.297,7.683-3.952,11.715c-1.654,4.01-3.715,8.018-6.26,10.711
		c-1.268,1.346-2.64,2.321-4.028,2.842c-1.387,0.521-2.781,0.64-4.093,0.396c-2.659-0.463-5.089-2.384-6.807-5.023
		c-1.722-2.598-2.784-5.785-2.988-8.296c-0.116-1.253,0.085-2.282,0.35-2.656C13.05,203.174,13.223,203.191,13.217,203.161z"/>
</g>
<g>
	<path fill="#5D7449" d="M13.135,207.043c-0.775-1.229-0.127-1.935,0.756-2.739c0.558-0.525,1.077-1.075,1.554-1.664
		c1.171-1.482,2.085-3.196,2.505-5.09c1.095-4.959,0.392-10.191-1.608-15.602c-1.121-3.549-2.302-16.111-3.664-20.218
		c-2.567,1.866-14.896,18.091-15.845,26.06c-0.42,3.551-0.273,7.504,1.555,11.257c1.07,2.188,2.819,4.108,5.065,5.433
		c1.567,0.938,3.288,1.557,4.984,1.961c1.308,0.317-1.696-0.404,0,0c1.308,0.317,1.709-0.657,2.875-0.426
		c-2.611-4.334-4.625-9.123-5.518-13.769c-0.801-4.131-0.566-14.042,0.71-17.723c-0.723,2.591-0.366,9.875-0.163,12.791
		c0.706,4.031,1.301,8.117,2.792,12.144c0.71,1.932,1.989,5.424,3.597,7.715"/>
</g>
</svg>
