<?xml version="1.0" encoding="utf-8"?>
<!-- Generator: Adobe Illustrator 16.0.0, SVG Export Plug-In . SVG Version: 6.00 Build 0)  -->
<!DOCTYPE svg PUBLIC "-//W3C//DTD SVG 1.1//EN" "http://www.w3.org/Graphics/SVG/1.1/DTD/svg11.dtd">
<svg version="1.1" xmlns="http://www.w3.org/2000/svg" xmlns:xlink="http://www.w3.org/1999/xlink" x="0px" y="0px"
	 width="173.637px" height="158.353px" viewBox="0 0 173.637 158.353" enable-background="new 0 0 173.637 158.353"
	 xml:space="preserve">
<g id="Layer_1">
	<path fill="#6F0C3F" d="M29.516,156.333l-4.408-0.104l-0.23-34.768c-0.184-4.059-0.274-4.927-0.274-6.903l3.393-0.022
		c0.516,1.041,0.901,1.456,1.086,2.697c2.103-2.416,4.794-3.625,8.076-3.625c3.651,0,6.472,1.293,8.465,3.877
		c1.99,2.585,2.988,5.604,2.988,9.062c0,3.689-1.071,6.828-3.211,9.413c-2.138,2.585-5.181,3.876-9.126,3.876
		c-2.841,0-5.128-0.739-6.86-2.215v9.463L29.516,156.333z M29.413,120.607v8.455c0,2.148,0.554,3.909,1.66,5.286
		c1.106,1.376,2.802,2.064,5.089,2.064c1.4,0,2.607-0.286,3.622-0.855c1.014-0.57,1.798-1.335,2.352-2.292
		c0.552-0.956,0.958-1.971,1.217-3.044c0.257-1.074,0.386-2.198,0.386-3.374c0-2.617-0.645-4.864-1.936-6.746
		c-1.291-1.878-3.301-2.818-6.028-2.818C33.598,117.283,31.478,118.392,29.413,120.607z"/>
	<path fill="#6F0C3F" d="M58.769,144.092h-4.591v-35.437c0-0.981,2.821-2.92,4.591-2.92V144.092z"/>
	<path fill="#6F0C3F" d="M89.624,138.655l0.942,2.616c-0.26,0.102-0.674,0.26-1.245,0.479c-0.572,0.22-1.034,0.386-1.385,0.503
		c-0.349,0.116-0.781,0.235-1.296,0.351c-0.519,0.119-0.979,0.178-1.385,0.178c-1.069,0-1.946-0.317-2.629-0.957
		c-0.682-0.636-1.116-1.458-1.298-2.464c-2.471,2.348-5.239,3.522-8.299,3.522c-2.212,0-4.03-0.596-5.449-1.788
		c-1.42-1.19-2.129-2.792-2.129-4.807c0-5.669,5.256-8.54,15.766-8.607v-2.667c0-3.356-1.531-5.035-4.591-5.035
		c-1.438,0-2.896,0.268-4.371,0.806c-1.476,0.537-2.655,1.26-3.54,2.165l-2.268-2.971c2.986-2.181,6.509-3.271,10.566-3.271
		c2.876,0,5.061,0.712,6.555,2.138c1.494,1.428,2.24,3.465,2.24,6.117v12.485c0,0.669,0.084,1.156,0.249,1.459
		c0.167,0.301,0.489,0.453,0.969,0.453C87.467,139.361,88.333,139.126,89.624,138.655z M81.217,132.555v-1.602
		c-1.365,0-2.537,0.042-3.515,0.124c-0.975,0.085-2.119,0.276-3.427,0.576c-1.31,0.302-2.325,0.826-3.043,1.577
		s-1.079,1.709-1.079,2.878c0,1.066,0.397,1.868,1.19,2.4c0.794,0.533,1.853,0.801,3.181,0.801c1.88,0,3.465-0.692,4.758-2.078
		C80.57,135.848,81.217,134.29,81.217,132.555z"/>
	<path fill="#6F0C3F" d="M116.405,142.508h-4.535v-15.352c0-0.772-0.019-1.41-0.058-1.914c-0.035-0.501-0.137-1.073-0.303-1.71
		c-0.166-0.639-0.405-1.15-0.718-1.537c-0.313-0.385-0.776-0.712-1.384-0.98c-0.61-0.269-1.337-0.405-2.185-0.405
		c-2.434,0-4.941,1.11-7.523,3.324v18.574h-4.537v-17.719c0-3.222-0.608-5.588-1.826-7.099l5.035-0.603
		c0.553,1.275,0.904,2.466,1.051,3.574c2.766-2.518,5.624-3.774,8.574-3.774c2.912,0,5.042,0.796,6.388,2.39
		c1.348,1.595,2.021,3.767,2.021,6.519V142.508z"/>
	<path fill="#6F0C3F" d="M135.631,139.694l0.774,2.82c-2.174,0.604-3.999,0.904-5.474,0.904c-2.25,0-3.866-0.545-4.841-1.634
		c-0.976-1.091-1.466-2.71-1.466-4.859V121.02h-4.094v-2.518c3.208-0.065,5.348-2.667,6.415-7.802h3.488
		c-0.813,3.02-1.218,5.403-1.218,7.147h7.19l-0.992,3.172h-6.198v16.009c0,1.073,0.211,1.87,0.636,2.39
		c0.424,0.521,1.188,0.781,2.296,0.781C132.994,140.199,134.158,140.031,135.631,139.694z"/>
	<path fill="#6F0C3F" d="M140.623,140.872l1.938-3.072c2.138,1.344,4.092,2.015,5.862,2.015c1.513,0,2.822-0.267,3.926-0.806
		c1.111-0.536,1.662-1.443,1.662-2.717c0-1.008-0.443-1.889-1.328-2.645c-0.886-0.754-1.964-1.399-3.235-1.938
		c-1.273-0.534-2.54-1.096-3.789-1.686c-1.256-0.587-2.325-1.383-3.209-2.392c-0.885-1.005-1.328-2.214-1.328-3.623
		c0-2.35,0.94-4.153,2.823-5.412c1.878-1.258,4.167-1.886,6.856-1.886c2.804,0,5.257,0.586,7.358,1.762l-1.605,3.221
		c-1.733-1.209-3.484-1.812-5.253-1.812c-1.438,0-2.712,0.27-3.818,0.806c-1.106,0.537-1.66,1.41-1.66,2.616
		c0,1.007,0.444,1.888,1.328,2.644c0.885,0.756,1.965,1.393,3.235,1.914c1.275,0.521,2.546,1.073,3.82,1.66
		c1.271,0.588,2.348,1.401,3.234,2.442c0.885,1.04,1.328,2.282,1.328,3.724c0,2.484-0.93,4.322-2.795,5.513
		c-1.862,1.19-4.232,1.787-7.108,1.787C146.394,142.986,143.646,142.281,140.623,140.872z"/>
	<path fill="#6F0C3F" d="M36.231,100.274l10.753-24.661l-4.313,0.108l-6.723,19.204L28.072,76.09l-4.978,0.125
		C23.094,76.216,36.193,100.354,36.231,100.274z"/>
	<path fill="#6F0C3F" d="M65.704,103.453c-3.943,0-7.033-1.319-9.267-3.953c-2.236-2.633-3.353-5.812-3.353-9.531
		c0-3.685,1.128-6.852,3.38-9.503c2.252-2.653,5.331-3.978,9.24-3.978c3.979,0,7.087,1.308,9.322,3.926
		c2.234,2.618,3.352,5.803,3.352,9.556c0,3.754-1.118,6.94-3.352,9.557C72.791,102.145,69.683,103.453,65.704,103.453z
		 M65.704,100.198c1.84,0,3.368-0.568,4.591-1.706c1.22-1.136,2.047-2.435,2.479-3.898c0.431-1.464,0.647-3.006,0.647-4.624
		c0-1.619-0.226-3.16-0.676-4.622c-0.451-1.465-1.288-2.766-2.51-3.902c-1.218-1.135-2.73-1.706-4.531-1.706
		c-1.804,0-3.316,0.57-4.537,1.706c-1.219,1.136-2.046,2.437-2.477,3.902c-0.431,1.461-0.648,3.003-0.648,4.622
		c0,1.516,0.243,3.014,0.732,4.495c0.487,1.479,1.343,2.805,2.562,3.977C62.558,99.613,64.013,100.198,65.704,100.198z"/>
	<path fill="#6F0C3F" d="M122.477,102.523l-4.026-0.336l0.073-17.969c0-3.085-0.468-3.239-1.505-5.08l-1.521-2.025
		c1.452-0.992,5.723,2.15,5.916,3.867c1.041-1.472,3.667-2.896,5.585-3.262c2.298-0.44,7.114-0.174,10.61,1.106l-2.716,1.483
		c-5.506-1.047-11.35,2.211-12.689,3.999L122.477,102.523z"/>
	<path fill="#6F0C3F" d="M45.745,65.958h-4.537V50.555c0-0.972-0.038-1.761-0.112-2.367c-0.073-0.603-0.25-1.265-0.524-1.986
		c-0.277-0.721-0.747-1.268-1.411-1.635c-0.664-0.37-1.514-0.554-2.546-0.554c-2.139,0-4.666,1.106-7.578,3.321v18.625h-4.537
		c0,0-0.032-40.957-0.032-41.022l4.345,0.87l0.224,18.105c2.802-2.417,5.587-3.624,8.352-3.624c5.57,0,8.355,2.969,8.355,8.91
		V65.958z"/>
	<path fill="#486E2B" d="M65.049,67.034c-3.872,0-6.906-1.284-9.1-3.851c-2.194-2.568-3.29-5.663-3.29-9.288
		c0-3.589,1.105-6.676,3.319-9.262c2.212-2.583,5.236-3.875,9.071-3.875c3.909,0,6.961,1.276,9.156,3.826
		c2.196,2.55,3.292,5.654,3.292,9.312c0,3.659-1.095,6.763-3.292,9.313C72.01,65.76,68.958,67.034,65.049,67.034z M65.049,63.864
		c1.807,0,3.311-0.556,4.51-1.663c1.198-1.106,2.009-2.374,2.434-3.8c0.423-1.426,0.636-2.929,0.636-4.506
		c0-1.576-0.221-3.079-0.665-4.503c-0.442-1.426-1.264-2.695-2.459-3.802c-1.199-1.107-2.684-1.66-4.455-1.66
		c-1.768,0-3.254,0.553-4.452,1.66c-1.198,1.107-2.011,2.376-2.435,3.802c-0.423,1.425-0.635,2.928-0.635,4.503
		c0,1.478,0.239,2.937,0.719,4.38c0.477,1.443,1.317,2.737,2.517,3.875C61.962,63.292,63.39,63.864,65.049,63.864z"/>
	<path fill="#486E2B" d="M109.415,62.704l2.593,1.145c-0.257,0.103-2.324,1.735-2.896,1.953c-0.573,0.219-1.034,0.385-1.384,0.503
		c-0.352,0.116-0.785,0.234-1.301,0.352c-0.515,0.119-0.976,0.177-1.382,0.177c-1.071,0-1.938-0.32-2.601-0.958
		c-0.666-0.637-1.089-1.458-1.273-2.465c-2.582,2.416-5.403,3.624-8.461,3.624c-2.916,0-5.045-0.797-6.391-2.391
		c-1.346-1.594-2.02-3.768-2.02-6.518V44.332c0-0.032,0.133-2.873,0.133-2.941l4.458-0.029v15.405c0,0.906,0.046,1.678,0.138,2.316
		c0.091,0.636,0.274,1.307,0.554,2.012c0.275,0.705,0.745,1.25,1.412,1.636c0.663,0.386,1.49,0.578,2.486,0.578
		c2.066,0,3.838-0.593,5.312-1.787c1.473-1.189,2.211-2.726,2.211-4.605V44.332c0-0.032-0.009-1.661-0.135-2.134
		c-0.004-0.014,0.022-0.76,0.022-0.829l4.706-0.008v20.137c0,0.67,0.083,1.157,0.249,1.459c0.165,0.3,0.488,0.453,0.969,0.453
		C107.258,63.411,108.122,63.175,109.415,62.704z"/>
	<path fill="#6F0C3F" d="M114.669,64.831l0.578-2.969c2.137,1.342,5.453,1.913,7.224,1.913c1.511,0,2.82-0.27,3.928-0.808
		c1.104-0.535,1.659-1.441,1.659-2.718c0-1.006-0.442-1.887-1.328-2.641c-0.887-0.757-1.963-1.4-3.237-1.939
		c-1.272-0.536-2.536-1.097-3.789-1.686c-1.255-0.586-2.323-1.386-3.209-2.391c-0.883-1.008-1.328-2.216-1.328-3.625
		c0-2.348,0.942-4.153,2.823-5.411c1.881-1.259,4.166-1.888,6.858-1.888c2.803,0,5.253,0.587,7.36,1.763l-1.606,3.22
		c-1.732-1.208-3.484-1.81-5.256-1.81c-1.439,0-2.709,0.269-3.816,0.805c-1.107,0.538-1.659,1.409-1.659,2.617
		c0,1.006,0.441,1.89,1.326,2.643c0.886,0.755,1.965,1.395,3.237,1.913c1.272,0.521,2.544,1.076,3.817,1.663
		c1.271,0.587,2.351,1.402,3.234,2.439c0.887,1.04,1.33,2.284,1.33,3.727c0,2.483-0.932,4.322-2.793,5.511
		c-1.862,1.192-4.233,1.788-7.107,1.788C120.442,66.945,117.333,66.713,114.669,64.831z"/>
	<path fill="#6F0C3F" d="M156.713,61.145l2.046,3.031c-2.546,1.908-5.644,2.858-9.296,2.858c-3.98,0-7.107-1.215-9.375-3.649
		c-2.269-2.433-3.403-5.511-3.403-9.236c0-2.283,0.416-4.413,1.245-6.394c0.83-1.98,2.175-3.64,4.037-4.983
		c1.863-1.341,4.085-2.014,6.667-2.014c3.21,0,5.79,0.864,7.745,2.593c1.956,1.728,2.931,4.037,2.931,6.922
		c0,2.147-0.94,3.22-2.82,3.22h-14.936v0.503c0,2.402,0.71,4.581,2.129,6.534c1.417,1.955,3.384,2.931,5.891,2.931
		c1.218,0,2.49-0.21,3.818-0.628C154.721,62.413,155.827,61.85,156.713,61.145z M141.884,50.372h11.564
		c0.406,0,0.663-0.076,0.774-0.226c0.11-0.151,0.167-0.429,0.167-0.832c0-1.509-0.481-2.785-1.44-3.825
		c-0.959-1.038-2.249-1.56-3.871-1.56c-1.771,0-3.33,0.654-4.674,1.962C143.056,47.201,142.218,48.695,141.884,50.372z"/>
	<path fill="none" stroke="#486E2B" stroke-width="3.9795" stroke-miterlimit="10" d="M168.096,28.418"/>
	<g>
		<path fill="#486E2B" d="M26.397,96.769c-0.21-0.471-0.691-0.355-0.897-0.764c-1.016,1.853-2.358,3.635-3.932,5.045
			c-1.4,1.256-3.481,3.008-5.232,3.524c1.187-0.415,2.318-1.491,3.288-2.336c1.383-1.205,2.709-2.529,3.887-3.966
			c0.572-0.691,1.599-1.934,2.079-2.981c0.125-0.274,0.141-0.571,0.145-0.822c-0.089,0.243-0.196,0.551-0.254,0.697
			c-0.231,0.581-0.763,0.547-1.299,0.475c-0.343-0.042-0.691-0.061-1.039-0.062c-0.874,0.007-1.77,0.148-2.614,0.487
			c-2.199,0.884-2.928,3.063-4.079,5.057c-0.945,1.633-1.94,3.416-3.185,4.834c2.379,0.555,5.141,0.474,7.586-0.504
			c-0.547,0.289-0.616,0.346,1.266-0.596c1.486-0.742,2.978-1.754,3.967-3.226c0.574-0.861,0.877-1.863,0.821-2.868
			C26.869,98.057,26.672,97.385,26.397,96.769z"/>
	</g>
	<g>
		<g>
			<linearGradient id="SVGID_1_" gradientUnits="userSpaceOnUse" x1="5.27" y1="100.3359" x2="37.1411" y2="100.3359">
				<stop  offset="0.0662" style="stop-color:#7A9362"/>
				<stop  offset="0.3093" style="stop-color:#755151"/>
				<stop  offset="0.5138" style="stop-color:#711F44"/>
				<stop  offset="0.6145" style="stop-color:#6F0C3F"/>
			</linearGradient>
			<path fill="url(#SVGID_1_)" d="M37.138,96.289c0,0-0.05,0.305-0.143,0.877c-0.115,0.625-0.292,1.492-0.618,2.58
				c-0.652,2.155-1.906,5.236-4.499,8.17c-1.292,1.455-2.925,2.852-4.909,3.916c-0.99,0.533-2.07,0.966-3.21,1.279
				c-0.578,0.16-1.139,0.273-1.772,0.368l-0.852,0.1c-0.308,0.02-0.622,0.049-0.928,0.06c-2.426,0.087-4.977-0.379-7.271-1.531
				c-2.29-1.143-4.274-3.035-5.451-5.351c-1.191-2.314-1.57-4.941-1.397-7.414c0.078-1.242,0.294-2.455,0.6-3.622
				c0.066-0.278,0.153-0.607,0.25-0.878c0.098-0.281,0.165-0.554,0.287-0.839l0.356-0.847l0.421-0.793
				c1.183-2.086,3.077-3.617,5.085-4.408c2.014-0.811,4.068-1.014,5.93-0.908c1.88,0.144,3.524,0.907,4.634,1.943
				c1.125,1.032,1.731,2.264,1.997,3.306c0.268,1.053,0.186,1.925,0.047,2.479c-0.145,0.56-0.307,0.825-0.307,0.825
				s0.153-0.271,0.279-0.832c0.12-0.555,0.172-1.419-0.125-2.444c-0.294-1.015-0.928-2.198-2.047-3.159
				c-1.104-0.966-2.704-1.643-4.502-1.722c-1.793-0.046-3.798,0.229-5.671,1.063c-1.877,0.819-3.567,2.295-4.594,4.256l-0.364,0.748
				l-0.294,0.77c-0.102,0.253-0.167,0.554-0.253,0.83c-0.09,0.287-0.142,0.53-0.204,0.829c-0.255,1.128-0.419,2.289-0.451,3.457
				c-0.083,2.329,0.362,4.712,1.493,6.734c1.121,2.022,2.917,3.615,4.971,4.556c2.059,0.945,4.335,1.283,6.488,1.131l0.782-0.075
				l0.833-0.127c0.479-0.09,1.012-0.212,1.495-0.366c0.981-0.306,1.908-0.713,2.757-1.207c1.7-0.987,3.1-2.264,4.2-3.591
				c2.211-2.677,3.241-5.464,3.755-7.399c0.257-0.976,0.39-1.766,0.467-2.273c0.073-0.564,0.111-0.865,0.111-0.865L37.138,96.289z"
				/>
		</g>
	</g>
	<path fill="#6F0C3F" d="M27.996,114.536c0.516,1.041,0.901,1.456,1.086,2.697c2.103-2.416,4.794-3.625,8.076-3.625
		c3.651,0,6.472,1.293,8.465,3.877c1.99,2.585,2.988,5.604,2.988,9.062c0,3.689-1.071,6.828-3.211,9.413
		c-2.138,2.585-5.181,3.876-9.126,3.876c-2.841,0-5.128-0.739-6.86-2.215v9.463l0.103,9.249l-4.408-0.104l-0.23-34.768
		 M29.413,120.607v8.455c0,2.148,0.554,3.909,1.66,5.286c1.106,1.376,2.802,2.064,5.089,2.064c1.4,0,2.607-0.286,3.622-0.855
		c1.014-0.57,1.798-1.335,2.352-2.292c0.552-0.956,0.958-1.971,1.217-3.044c0.257-1.074,0.386-2.198,0.386-3.374
		c0-2.617-0.645-4.864-1.936-6.746c-1.291-1.878-3.301-2.818-6.028-2.818C33.598,117.283,31.478,118.392,29.413,120.607z"/>
	<path fill="#6F0C3F" d="M65.049,67.034c-3.872,0-6.906-1.284-9.1-3.851c-2.194-2.568-3.29-5.663-3.29-9.288
		c0-3.589,1.105-6.676,3.319-9.262c2.212-2.583,5.236-3.875,9.071-3.875c3.909,0,6.961,1.276,9.156,3.826
		c2.196,2.55,3.292,5.654,3.292,9.312c0,3.659-1.095,6.763-3.292,9.313C72.01,65.76,68.958,67.034,65.049,67.034z M65.049,63.864
		c1.807,0,3.311-0.556,4.51-1.663c1.198-1.106,2.009-2.374,2.434-3.8c0.423-1.426,0.636-2.929,0.636-4.506
		c0-1.576-0.221-3.079-0.665-4.503c-0.442-1.426-1.264-2.695-2.459-3.802c-1.199-1.107-2.684-1.66-4.455-1.66
		c-1.768,0-3.254,0.553-4.452,1.66c-1.198,1.107-2.011,2.376-2.435,3.802c-0.423,1.425-0.635,2.928-0.635,4.503
		c0,1.478,0.239,2.937,0.719,4.38c0.477,1.443,1.317,2.737,2.517,3.875C61.962,63.292,63.39,63.864,65.049,63.864z"/>
	<path fill="#6F0C3F" d="M109.415,62.704l2.593,1.145c-0.257,0.103-2.324,1.735-2.896,1.953c-0.573,0.219-1.034,0.385-1.384,0.503
		c-0.352,0.116-0.785,0.234-1.301,0.352c-0.515,0.119-0.976,0.177-1.382,0.177c-1.071,0-1.938-0.32-2.601-0.958
		c-0.666-0.637-1.089-1.458-1.273-2.465c-2.582,2.416-5.403,3.624-8.461,3.624c-2.916,0-5.045-0.797-6.391-2.391
		c-1.346-1.594-2.02-3.768-2.02-6.518V44.332c0-0.032,0.133-2.873,0.133-2.941l4.458-0.029v15.405c0,0.906,0.046,1.678,0.138,2.316
		c0.091,0.636,0.274,1.307,0.554,2.012c0.275,0.705,0.745,1.25,1.412,1.636c0.663,0.386,1.49,0.578,2.486,0.578
		c2.066,0,3.838-0.593,5.312-1.787c1.473-1.189,2.211-2.726,2.211-4.605V44.332c0-0.032-0.009-1.661-0.135-2.134
		c-0.004-0.014,0.022-0.76,0.022-0.829l4.706-0.008v20.137c0,0.67,0.083,1.157,0.249,1.459c0.165,0.3,0.488,0.453,0.969,0.453
		C107.258,63.411,108.122,63.175,109.415,62.704z"/>
	<path fill="#6F0C3F" d="M110.995,99.277l2.594,1.145c-0.258,0.103-2.324,1.735-2.897,1.952c-0.573,0.22-1.034,0.385-1.384,0.503
		c-0.352,0.116-0.785,0.234-1.301,0.352c-0.514,0.119-0.976,0.177-1.381,0.177c-1.07,0-1.938-0.319-2.601-0.958
		c-0.666-0.637-1.089-1.458-1.272-2.465c-2.582,2.416-5.403,3.624-8.461,3.624c-2.915,0-5.045-0.797-6.391-2.391
		c-1.346-1.594-2.02-3.768-2.02-6.518V80.905c0-0.031,0.133-2.873,0.133-2.94l4.458-0.03v15.405c0,0.906,0.046,1.678,0.138,2.316
		c0.09,0.637,0.274,1.307,0.554,2.012c0.275,0.705,0.745,1.251,1.412,1.636c0.663,0.386,1.49,0.577,2.487,0.577
		c2.065,0,3.837-0.593,5.312-1.787c1.473-1.189,2.211-2.725,2.211-4.604V80.905c0-0.031-0.009-1.66-0.134-2.133
		c-0.005-0.014,0.021-0.76,0.021-0.829l4.706-0.008v20.137c0,0.669,0.083,1.156,0.249,1.459c0.165,0.301,0.488,0.454,0.969,0.454
		C108.838,99.984,109.702,99.749,110.995,99.277z"/>
	<path fill="none" stroke="#486E2B" stroke-width="3.9795" stroke-miterlimit="10" d="M168.096,28.418"/>
</g>
<g id="house_floor">
	<path fill="none" stroke="#486E2B" stroke-width="3.9795" stroke-miterlimit="10" d="M25.108,156.229"/>
	<line fill="none" stroke="#6F0C3F" stroke-width="4" stroke-miterlimit="10" x1="25.137" y1="156.103" x2="171.387" y2="156.353"/>
</g>
<g id="roof">
	<path fill="none" stroke="#486E2B" stroke-width="3.5423" stroke-miterlimit="10" d="M25.786,28.416"/>
	<path fill="none" stroke="#486E2B" stroke-width="3.5423" stroke-miterlimit="10" d="M170.137,27.579"/>
	<path fill="#486E2B" stroke="#486E2B" stroke-width="4" stroke-miterlimit="10" d="M24.47,24.936"/>
	<polyline fill="none" stroke="#6F0C3F" stroke-width="4" stroke-miterlimit="10" points="24.47,24.936 93.303,2.103 170.47,26.603 
			"/>
</g>
<g id="right_wall">
	<path fill="none" stroke="#486E2B" stroke-width="3.9875" stroke-miterlimit="10" d="M168.637,26.604"/>
	<line fill="none" stroke="#6F0C3F" stroke-width="4" stroke-miterlimit="10" x1="171.637" y1="157.853" x2="170.137" y2="25.103"/>
</g>
</svg>
