<?xml version="1.0" encoding="utf-8"?>
<!-- Generator: Adobe Illustrator 16.0.0, SVG Export Plug-In . SVG Version: 6.00 Build 0)  -->
<!DOCTYPE svg PUBLIC "-//W3C//DTD SVG 1.1//EN" "http://www.w3.org/Graphics/SVG/1.1/DTD/svg11.dtd">
<svg version="1.1" id="Layer_1" xmlns="http://www.w3.org/2000/svg" xmlns:xlink="http://www.w3.org/1999/xlink" x="0px" y="0px"
	 width="671.207px" height="690.936px" viewBox="0 0 671.207 690.936" enable-background="new 0 0 671.207 690.936"
	 xml:space="preserve">
<path fill="#9F3255" stroke="#9F3255" stroke-width="7.9374" stroke-miterlimit="10" d="M82.298,683.844l-22.359-1.675
	l-0.171-155.951c-0.768-16.106-1.142-19.553-1.142-27.397l14.114-0.088c2.146,4.132,3.75,5.777,4.516,10.702
	c8.748-9.587,19.944-14.387,33.598-14.387c15.189,0,26.926,5.132,35.219,15.388c8.279,10.26,12.429,22.243,12.429,35.964
	c0,14.643-4.458,27.098-13.359,37.355c-8.895,10.26-21.553,15.383-37.966,15.383c-11.819,0-21.333-2.934-28.54-8.79v37.557
	L82.298,683.844z M78.637,522.827v33.557c0,8.525,2.306,15.514,6.906,20.979c4.602,5.458,11.658,8.191,21.173,8.191
	c5.824,0,10.844-1.137,15.067-3.396c4.219-2.263,7.48-5.297,9.783-9.095c2.299-3.797,3.987-7.823,5.065-12.081
	c1.07-4.265,1.607-8.726,1.607-13.391c0-10.388-2.685-19.305-8.056-26.774c-5.368-7.451-13.734-11.186-25.078-11.186
	C96.047,509.633,87.227,514.033,78.637,522.827z"/>
<path fill="#9F3255" stroke="#9F3255" stroke-width="7.9374" stroke-miterlimit="10" d="M201.886,631.154h-19.098V490.517
	c0-3.896,11.736-11.588,19.098-11.588V631.154z"/>
<path fill="#9F3255" stroke="#9F3255" stroke-width="7.9374" stroke-miterlimit="10" d="M330.25,609.578l3.918,10.383
	c-1.082,0.403-2.807,1.032-5.178,1.903c-2.384,0.872-4.306,1.53-5.763,1.996c-1.453,0.461-3.249,0.933-5.391,1.392
	c-2.159,0.472-4.073,0.704-5.761,0.704c-4.449,0-8.099-1.26-10.936-3.798c-2.838-2.523-4.643-5.785-5.399-9.778
	c-10.278,9.317-21.801,13.98-34.529,13.98c-9.207,0-16.767-2.364-22.668-7.098c-5.908-4.725-8.857-11.079-8.857-19.077
	c0-22.498,21.866-33.891,65.589-34.159v-10.584c0-13.319-6.367-19.981-19.103-19.981c-5.984,0-12.046,1.062-18.181,3.198
	c-6.139,2.129-11.047,4.999-14.728,8.591l-9.435-11.789c12.421-8.654,27.078-12.979,43.956-12.979
	c11.968,0,21.061,2.824,27.27,8.482c6.215,5.666,9.317,13.751,9.317,24.277v49.551c0,2.654,0.347,4.589,1.034,5.79
	c0.693,1.193,2.035,1.798,4.03,1.798C321.278,612.379,324.879,611.445,330.25,609.578z M295.276,585.368v-6.357
	c-5.678,0-10.553,0.168-14.626,0.492c-4.055,0.338-8.813,1.097-14.255,2.287c-5.449,1.197-9.673,3.278-12.664,6.259
	c-2.99,2.981-4.488,6.782-4.488,11.421c0,4.232,1.653,7.414,4.949,9.528c3.304,2.115,7.71,3.177,13.234,3.177
	c7.82,0,14.417-2.748,19.8-8.247C292.583,598.435,295.276,592.253,295.276,585.368z"/>
<path fill="#9F3255" stroke="#9F3255" stroke-width="7.9374" stroke-miterlimit="10" d="M441.438,628.635h-18.867l-0.001-60.926
	c0-3.066-0.081-5.597-0.239-7.597c-0.144-1.988-0.568-4.26-1.265-6.786c-0.688-2.536-1.682-4.566-2.988-6.102
	c-1.301-1.526-3.227-2.825-5.756-3.89c-2.533-1.066-5.56-1.608-9.091-1.608c-10.123,0-20.556,4.405-31.3,13.191v73.716h-18.871
	v-70.319c0-12.788-2.53-22.178-7.594-28.173l20.949-2.391c2.299,5.061,3.756,9.783,4.373,14.184
	c11.502-9.991,23.394-14.979,35.666-14.979c12.114,0,20.973,3.157,26.572,9.482c5.608,6.328,8.409,14.947,8.409,25.87
	L441.438,628.635L441.438,628.635z"/>
<path fill="#9F3255" stroke="#9F3255" stroke-width="7.9374" stroke-miterlimit="10" d="M521.649,613.702l3.218,11.192
	c-9.042,2.396-16.634,3.589-22.77,3.589c-9.359,0-16.085-2.161-20.143-6.483c-4.062-4.329-6.1-10.756-6.1-19.285v-63.126h-17.03
	v-9.993c13.348-0.26,22.247-10.584,26.689-30.962h14.51c-3.385,11.982-5.066,21.443-5.066,28.366h29.908l-4.128,12.589h-25.78
	v63.533c0,4.259,0.875,7.422,2.647,9.483c1.764,2.067,4.939,3.101,9.55,3.101C510.674,615.706,515.519,615.04,521.649,613.702z"/>
<path fill="#9F3255" stroke="#9F3255" stroke-width="7.9374" stroke-miterlimit="10" d="M542.412,618.375l8.062-12.192
	c8.896,5.335,17.025,7.997,24.389,7.997c6.3,0,11.741-1.06,16.334-3.198c4.624-2.128,6.914-5.729,6.914-10.781
	c0-3.999-1.841-7.496-5.522-10.495c-3.682-2.991-8.17-5.554-13.457-7.693c-5.297-2.12-10.564-4.348-15.766-6.688
	c-5.226-2.33-9.675-5.489-13.35-9.49c-3.681-3.99-5.525-8.786-5.525-14.38c0-9.324,3.91-16.482,11.742-21.479
	c7.813-4.991,17.341-7.483,28.525-7.483c11.665,0,21.87,2.326,30.61,6.992l-6.679,12.781c-7.209-4.798-14.498-7.192-21.854-7.192
	c-5.984,0-11.282,1.068-15.883,3.196c-4.604,2.133-6.906,5.598-6.906,10.385c0,3.996,1.845,7.49,5.527,10.489
	c3.682,3.001,8.173,5.528,13.456,7.599c5.306,2.064,10.595,4.26,15.894,6.589c5.283,2.332,9.768,5.561,13.453,9.692
	c3.682,4.127,5.526,9.057,5.526,14.776c0,9.86-3.868,17.153-11.627,21.879c-7.743,4.724-17.607,7.093-29.568,7.093
	C566.422,626.767,554.994,623.968,542.412,618.375z"/>
<path fill="#9F3255" stroke="#9F3255" stroke-width="7.9374" stroke-miterlimit="10" d="M116.126,446.255l44.734-97.869
	l-17.942,0.431l-27.966,76.213l-32.769-74.752l-20.709,0.498C61.474,350.775,115.967,446.571,116.126,446.255z"/>
<path fill="#9F3255" stroke="#9F3255" stroke-width="7.9374" stroke-miterlimit="10" d="M230.768,460.872
	c-16.404,0-29.257-5.236-38.553-15.688c-9.303-10.444-13.946-23.062-13.946-37.822c0-14.625,4.695-27.193,14.06-37.717
	c9.372-10.527,22.179-15.787,38.439-15.787c16.555,0,29.484,5.191,38.782,15.581c9.293,10.389,13.945,23.029,13.945,37.923
	c0,14.9-4.652,27.543-13.945,37.927C260.252,455.677,247.323,460.872,230.768,460.872z M230.768,447.953
	c7.654,0,14.011-2.255,19.099-6.77c5.076-4.511,8.518-9.664,10.312-15.473c1.794-5.809,2.694-11.929,2.694-18.352
	c0-6.425-0.938-12.541-2.815-18.342c-1.875-5.813-5.354-10.978-10.438-15.485c-5.065-4.505-11.359-6.77-18.851-6.77
	c-7.505,0-13.795,2.265-18.873,6.77c-5.073,4.509-8.51,9.672-10.305,15.485c-1.791,5.801-2.696,11.917-2.696,18.342
	c0,6.015,1.012,11.963,3.045,17.84c2.028,5.87,5.586,11.133,10.66,15.782C217.68,445.633,223.736,447.953,230.768,447.953z"/>
<path fill="#9F3255" stroke="#9F3255" stroke-width="7.9374" stroke-miterlimit="10" d="M470.924,457.183l-16.745-1.336
	l0.304-71.312c0-12.244-1.949-12.853-6.262-20.16l-6.326-8.039c6.037-3.935,23.808,8.533,24.609,15.348
	c4.329-5.844,15.25-11.495,23.233-12.946c9.562-1.748,29.598-0.692,44.145,4.389l-11.305,5.884
	c-22.906-4.156-47.213,8.775-52.791,15.872L470.924,457.183z"/>
<path fill="#9F3255" stroke="#9F3255" stroke-width="7.9374" stroke-miterlimit="10" d="M153.706,324.067h-19.438v-64.102
	c0-4.044-0.161-7.329-0.479-9.85c-0.312-2.506-1.071-5.263-2.248-8.265c-1.186-3.001-3.2-5.276-6.044-6.805
	c-2.843-1.537-6.486-2.307-10.908-2.307c-9.164,0-19.993,4.604-32.469,13.821v77.506H62.685c0,0,0.552-179.689,0.552-179.965
	l18.028-3.969l0.856,92.185c12.009-10.059,23.94-15.08,35.784-15.08c23.865,0,35.802,12.355,35.802,37.078L153.706,324.067
	L153.706,324.067z"/>
<path fill="#9F3255" stroke="#9F3255" stroke-width="7.9374" stroke-miterlimit="10" d="M228.014,325.336
	c-16.109,0-28.73-5.094-37.858-15.282c-9.128-10.193-13.686-22.474-13.686-36.861c0-14.245,4.598-26.497,13.807-36.759
	c9.204-10.251,21.784-15.38,37.737-15.38c16.262,0,28.96,5.064,38.091,15.185c9.135,10.121,13.692,22.438,13.692,36.955
	c0,14.521-4.557,26.839-13.692,36.96C256.974,320.28,244.276,325.336,228.014,325.336z M228.014,312.756
	c7.518,0,13.775-2.206,18.761-6.601c4.981-4.391,8.358-9.42,10.125-15.08c1.76-5.66,2.647-11.623,2.647-17.882
	c0-6.254-0.922-12.218-2.767-17.873c-1.839-5.661-5.257-10.694-10.232-15.089c-4.989-4.394-11.164-6.589-18.534-6.589
	c-7.356,0-13.538,2.196-18.521,6.589c-4.986,4.395-8.368,9.429-10.129,15.089c-1.763,5.655-2.644,11.619-2.644,17.873
	c0,5.863,0.996,11.654,2.991,17.384c1.983,5.727,5.479,10.862,10.471,15.38C215.17,310.486,221.111,312.756,228.014,312.756z"/>
<path fill="#9F3255" stroke="#9F3255" stroke-width="7.9374" stroke-miterlimit="10" d="M409.581,308.151l9.356,4.816
	c-4.271,2.773-8.232,6.614-10.615,7.477c-2.379,0.871-4.304,1.529-5.755,1.997c-1.462,0.46-3.269,0.93-5.41,1.396
	c-2.145,0.471-4.06,0.703-5.748,0.703c-4.453,0-8.063-1.269-10.821-3.801c-2.771-2.525-4.531-5.788-5.294-9.783
	c-10.737,9.586-22.479,14.38-35.202,14.38c-12.128,0-20.991-3.163-26.587-9.488c-5.601-6.323-8.404-14.954-8.404-25.868v-54.742
	c0-0.126,0.559-11.402,0.559-11.673l18.545-0.117v61.137c0,3.595,0.194,6.66,0.574,9.192c0.383,2.526,1.143,5.186,2.31,7.986
	c1.143,2.795,3.092,4.96,5.872,6.492c2.755,1.532,6.201,2.294,10.344,2.294c8.592,0,15.969-2.354,22.1-7.09
	c6.123-4.72,9.201-10.816,9.201-18.275v-49.947c0-0.126-0.043-6.591-0.562-8.468c-0.021-0.054,0.088-3.017,0.088-3.288l19.581-0.034
	v79.917c0,2.657,0.344,4.59,1.035,5.792c0.681,1.19,2.029,1.798,4.028,1.798C400.613,310.956,404.206,310.021,409.581,308.151z"/>
<path fill="#9F3255" stroke="#9F3255" stroke-width="7.9374" stroke-miterlimit="10" d="M439.445,316.593l2.405-11.784
	c8.892,5.326,22.682,7.589,30.053,7.589c6.282,0,11.732-1.071,16.34-3.205c4.589-2.122,6.903-5.72,6.903-10.785
	c0-3.992-1.842-7.488-5.527-10.483c-3.69-3.003-8.166-5.557-13.468-7.696c-5.291-2.126-10.546-4.353-15.76-6.689
	c-5.22-2.328-9.667-5.5-13.354-9.488c-3.67-4-5.522-8.793-5.522-14.389c0-9.316,3.918-16.482,11.742-21.473
	c7.83-4.996,17.329-7.493,28.532-7.493c11.662,0,21.853,2.33,30.619,6.995l-6.684,12.777c-7.203-4.792-14.494-7.184-21.86-7.184
	c-5.993,0-11.271,1.068-15.88,3.193c-4.607,2.134-6.897,5.591-6.897,10.385c0,3.994,1.831,7.499,5.514,10.49
	c3.684,2.996,8.176,5.535,13.47,7.59c5.285,2.069,10.585,4.269,15.875,6.598c5.289,2.33,9.78,5.563,13.455,9.682
	c3.689,4.128,5.534,9.063,5.534,14.79c0,9.856-3.876,17.152-11.618,21.87c-7.747,4.731-17.614,7.097-29.572,7.097
	C463.458,324.982,450.525,324.061,439.445,316.593z"/>
<path fill="#9F3255" stroke="#9F3255" stroke-width="7.9374" stroke-miterlimit="10" d="M612.356,301.964l8.511,12.027
	c-10.592,7.571-23.479,11.344-38.674,11.344c-16.558,0-29.568-4.823-39.002-14.483c-9.438-9.655-14.152-21.87-14.152-36.653
	c0-9.06,1.724-17.513,5.173-25.375c3.453-7.859,9.054-14.444,16.798-19.777c7.75-5.324,16.998-7.994,27.738-7.994
	c13.354,0,24.086,3.428,32.217,10.292c8.141,6.856,12.197,16.022,12.197,27.471c0,8.522-3.91,12.777-11.731,12.777h-62.134v1.999
	c0,9.534,2.952,18.181,8.854,25.93c5.897,7.759,14.081,11.63,24.506,11.63c5.068,0,10.359-0.833,15.884-2.494
	C604.066,306.996,608.667,304.76,612.356,301.964z M550.663,259.209h48.109c1.689,0,2.761-0.3,3.222-0.898
	c0.46-0.598,0.693-1.701,0.693-3.299c0-5.99-2-11.052-5.989-15.179c-3.991-4.12-9.354-6.192-16.105-6.192
	c-7.369,0-13.852,2.597-19.443,7.787C555.539,246.625,552.051,252.555,550.663,259.209z"/>
<path fill="none" stroke="#486E2B" stroke-width="16.1699" stroke-miterlimit="10" d="M656.709,172.083"/>
<g>
	<path fill="#5D7449" d="M62.563,456.465c2.262-0.256,2.047-1.617,4.026-1.905c-7.714-3.927-14.895-8.686-20.249-13.822
		c-4.774-4.566-11.354-11.286-12.558-16.315c1.113,3.454,5.242,7.184,8.437,10.332c4.543,4.49,9.685,8.904,15.41,12.999
		c2.753,1.978,7.7,5.541,12.124,7.507c1.153,0.521,2.484,0.753,3.61,0.926c-1.032-0.397-2.354-0.885-2.98-1.134
		c-2.473-0.998-1.981-2.401-1.311-3.79c0.402-0.898,0.716-1.812,0.943-2.744c0.521-2.345,0.453-4.841-0.534-7.322
		c-2.581-6.468-11.953-9.844-20.202-14.227c-6.768-3.589-14.172-7.416-19.775-11.679c-4.023,6.018-5.423,13.473-2.567,20.666
		c-0.953-1.656-1.172-1.88,1.875,3.783c2.403,4.458,6.013,9.118,12.025,12.728c3.514,2.1,7.845,3.562,12.414,4.063
		C56.454,456.892,59.612,456.799,62.563,456.465C64.823,456.208,59.612,456.799,62.563,456.465z"/>
</g>
<g>
	<g>
		
			<linearGradient id="SVGID_1_" gradientUnits="userSpaceOnUse" x1="-77.8403" y1="226.1494" x2="42.9035" y2="226.1494" gradientTransform="matrix(1 0 0 -1 84 665.9355)">
			<stop  offset="0.0662" style="stop-color:#7A9362"/>
			<stop  offset="0.2105" style="stop-color:#85765E"/>
			<stop  offset="0.482" style="stop-color:#984558"/>
			<stop  offset="0.6165" style="stop-color:#9F3255"/>
		</linearGradient>
		<path fill="url(#SVGID_1_)" d="M126.885,428.37c0,0-0.045,0.29-0.132,0.851c-0.096,0.586-0.18,1.295-0.457,2.695
			c-0.243,1.356-0.587,2.845-1.06,4.612c-0.496,1.76-1.099,3.775-1.979,5.963c-1.701,4.381-4.362,9.513-8.369,14.618
			c-3.993,5.101-9.346,10.137-15.949,14.25c-6.575,4.148-14.374,7.361-22.881,9.209c-8.598,1.892-18.025,2.151-27.375,0.172
			c-4.669-0.99-9.315-2.54-13.746-4.735c-4.429-2.188-8.638-5.055-12.297-8.619c-3.657-3.555-6.729-7.854-8.794-12.622
			c-2.077-4.764-3.126-9.954-3.154-15.058c-0.05-5.111,0.849-10.116,2.331-14.814c0.743-2.352,1.619-4.64,2.625-6.844
			c0.996-2.194,2.093-4.384,3.53-6.5c2.771-4.159,6.546-7.625,10.805-9.994c4.276-2.354,8.973-3.636,13.572-3.976
			c4.608-0.356,9.117,0.136,13.347,1.14c1.06,0.248,2.1,0.54,3.127,0.848l1.557,0.497c0.493,0.178,0.965,0.327,1.5,0.557
			c2.059,0.828,3.878,1.912,5.592,3.107c3.395,2.426,6.229,5.312,8.623,8.335c2.395,3.029,4.364,6.206,5.943,9.404
			c3.136,6.386,4.788,12.938,4.382,18.771c-0.205,2.9-0.967,5.598-2.231,7.788c-1.266,2.188-2.954,3.86-4.691,4.991
			c-3.5,2.296-6.814,2.818-8.955,3.163c-1.091,0.142-1.929,0.221-2.497,0.245c-0.566,0.035-0.858,0.053-0.858,0.053
			s0.292-0.026,0.856-0.081c0.565-0.044,1.4-0.15,2.482-0.327c2.12-0.41,5.396-1.055,8.728-3.405c1.654-1.157,3.22-2.823,4.36-4.955
			c1.139-2.135,1.781-4.73,1.885-7.523c0.206-5.608-1.601-11.915-4.85-18.005c-1.634-3.048-3.645-6.06-6.044-8.896
			c-2.397-2.832-5.204-5.492-8.44-7.644c-1.617-1.055-3.366-2.007-5.167-2.66c-0.419-0.168-0.939-0.318-1.43-0.476l-1.447-0.366
			c-0.992-0.229-1.992-0.445-3.003-0.618c-4.039-0.701-8.243-0.886-12.375-0.308c-4.13,0.56-8.162,1.962-11.683,4.192
			c-3.506,2.252-6.475,5.336-8.599,8.993c-1.055,1.771-1.927,3.787-2.738,5.865c-0.812,2.067-1.487,4.181-2.033,6.312
			c-1.091,4.261-1.607,8.632-1.329,12.89c0.259,4.259,1.354,8.379,3.215,12.079c1.856,3.703,4.476,6.977,7.581,9.679
			c6.228,5.439,14.23,8.567,22.127,9.791c7.939,1.23,15.846,0.562,22.862-1.396c7.116-2.051,13.407-5.175,18.48-8.879
			c5.107-3.677,8.987-7.897,11.76-11.977c2.781-4.088,4.489-8.022,5.529-11.354c0.546-1.658,0.883-3.187,1.166-4.511
			c0.261-1.329,0.447-2.499,0.533-3.312c0.114-0.761,0.182-1.73,0.232-2.27c0.05-0.564,0.075-0.856,0.075-0.856L126.885,428.37z"/>
	</g>
</g>
<path fill="#9F3255" stroke="#9F3255" stroke-width="7.9374" stroke-miterlimit="10" d="M228.014,325.336
	c-16.109,0-28.73-5.094-37.858-15.282c-9.128-10.193-13.686-22.474-13.686-36.861c0-14.245,4.598-26.497,13.807-36.759
	c9.204-10.251,21.784-15.38,37.737-15.38c16.262,0,28.96,5.064,38.091,15.185c9.135,10.121,13.692,22.438,13.692,36.955
	c0,14.521-4.557,26.839-13.692,36.96C256.974,320.28,244.276,325.336,228.014,325.336z M228.014,312.756
	c7.518,0,13.775-2.206,18.761-6.601c4.981-4.391,8.358-9.42,10.125-15.08c1.76-5.66,2.647-11.623,2.647-17.882
	c0-6.254-0.922-12.218-2.767-17.873c-1.839-5.661-5.257-10.694-10.232-15.089c-4.989-4.394-11.164-6.589-18.534-6.589
	c-7.356,0-13.538,2.196-18.521,6.589c-4.986,4.395-8.368,9.429-10.129,15.089c-1.763,5.655-2.644,11.619-2.644,17.873
	c0,5.863,0.996,11.654,2.991,17.384c1.983,5.727,5.479,10.862,10.471,15.38C215.17,310.486,221.111,312.756,228.014,312.756z"/>
<path fill="#9F3255" stroke="#9F3255" stroke-width="7.9374" stroke-miterlimit="10" d="M415.217,444.297l10.793,4.543
	c-1.072,0.412-9.67,6.888-12.05,7.752c-2.382,0.868-4.301,1.526-5.758,1.997c-1.462,0.461-3.269,0.93-5.415,1.396
	c-2.139,0.473-4.059,0.7-5.744,0.7c-4.452,0-8.062-1.268-10.825-3.8c-2.77-2.524-4.526-5.785-5.288-9.78
	c-10.74,9.586-22.479,14.379-35.203,14.379c-12.127,0-20.991-3.163-26.588-9.487c-5.595-6.325-8.397-14.955-8.397-25.869v-54.744
	c0-0.123,0.554-11.397,0.554-11.669l18.544-0.118v61.138c0,3.596,0.195,6.659,0.574,9.194c0.38,2.524,1.147,5.187,2.311,7.983
	c1.142,2.8,3.092,4.965,5.872,6.496c2.756,1.526,6.2,2.288,10.342,2.288c8.594,0,15.971-2.35,22.102-7.09
	c6.126-4.718,9.201-10.813,9.201-18.274v-49.948c0-0.123-0.039-6.588-0.562-8.465c-0.019-0.055,0.09-3.019,0.09-3.289l19.58-0.033
	v79.916c0,2.656,0.346,4.591,1.032,5.79c0.683,1.193,2.031,1.804,4.031,1.804C406.249,447.105,409.841,446.171,415.217,444.297z"/>
<path fill="none" stroke="#486E2B" stroke-width="16.1699" stroke-miterlimit="10" d="M656.709,172.083"/>
<path fill="none" stroke="#486E2B" stroke-width="9.8168" stroke-miterlimit="10" d="M61.948,401.101"/>
<path fill="none" stroke="#6F0C3F" stroke-width="32.5065" stroke-miterlimit="10" d="M670.403,681.3"/>
<path fill="none" stroke="#6F0C3F" stroke-width="19.7348" stroke-miterlimit="10" d="M62.022,399.891"/>
<path fill="none" stroke="#486E2B" stroke-width="14.3934" stroke-miterlimit="10" d="M665.202,168.751"/>
<path fill="#486E2B" stroke="#486E2B" stroke-width="16.2532" stroke-miterlimit="10" d="M59.195,158.262"/>
<path fill="none" stroke="#486E2B" stroke-width="16.2024" stroke-miterlimit="10" d="M658.96,164.882"/>
<path fill="none" stroke="#6F0C3F" stroke-width="22.9855" stroke-miterlimit="10" d="M662.082,158.922"/>
<path fill="none" stroke="#6F0C3F" stroke-width="13.9546" stroke-miterlimit="10" d="M429.927,407.011"/>
<polyline fill="none" stroke="#9F3255" stroke-width="23" stroke-miterlimit="10" points="56.207,679.436 659.707,677.436 
	659.707,161.601 354.662,12.775 66.503,150.977 "/>
<linearGradient id="SVGID_2_" gradientUnits="userSpaceOnUse" x1="-84" y1="172.2041" x2="-84" y2="172.2041" gradientTransform="matrix(1 0 0 -1 84 665.9355)">
	<stop  offset="0.0662" style="stop-color:#7A9362"/>
	<stop  offset="0.2105" style="stop-color:#85765E"/>
	<stop  offset="0.482" style="stop-color:#984558"/>
	<stop  offset="0.6165" style="stop-color:#9F3255"/>
</linearGradient>
<path fill="none" stroke="url(#SVGID_2_)" stroke-width="3.9687" stroke-miterlimit="10" d="M0,493.731"/>
</svg>
