<?xml version="1.0" encoding="utf-8"?>
<!-- Generator: Adobe Illustrator 16.0.0, SVG Export Plug-In . SVG Version: 6.00 Build 0)  -->
<!DOCTYPE svg PUBLIC "-//W3C//DTD SVG 1.1//EN" "http://www.w3.org/Graphics/SVG/1.1/DTD/svg11.dtd">
<svg version="1.1" id="Layer_1" xmlns="http://www.w3.org/2000/svg" xmlns:xlink="http://www.w3.org/1999/xlink" x="0px" y="0px"
	 width="671.207px" height="688.974px" viewBox="0 0 671.207 688.974" enable-background="new 0 0 671.207 688.974"
	 xml:space="preserve">
<path fill="#88563F" stroke="#88563F" stroke-width="7.9374" stroke-miterlimit="10" d="M82.877,683.105l-21.604-0.603
	l-1.171-151.951c-0.768-16.107-1.142-19.553-1.142-27.398l14.114-0.088c2.146,4.132,3.75,5.778,4.516,10.703
	c8.748-9.587,19.944-14.387,33.598-14.387c15.189,0,26.926,5.132,35.219,15.388c8.279,10.259,12.429,22.243,12.429,35.963
	c0,14.643-4.458,27.098-13.359,37.356c-8.895,10.26-21.553,15.383-37.966,15.383c-11.819,0-21.333-2.934-28.54-8.79v37.556
	L82.877,683.105z M78.971,527.16v33.557c0,8.525,2.306,15.513,6.906,20.979c4.602,5.458,11.658,8.192,21.173,8.192
	c5.824,0,10.844-1.137,15.067-3.396c4.219-2.263,7.48-5.297,9.783-9.095c2.299-3.796,3.987-7.823,5.065-12.081
	c1.07-4.264,1.607-8.725,1.607-13.39c0-10.388-2.685-19.305-8.056-26.775c-5.368-7.451-13.734-11.185-25.078-11.185
	C96.38,513.966,87.56,518.366,78.971,527.16z"/>
<path fill="#88563F" stroke="#88563F" stroke-width="7.9374" stroke-miterlimit="10" d="M201.886,631.154h-19.098V490.517
	c0-3.896,11.736-11.588,19.098-11.588V631.154z"/>
<path fill="#88563F" stroke="#88563F" stroke-width="7.9374" stroke-miterlimit="10" d="M330.25,609.578l3.918,10.383
	c-1.082,0.403-2.807,1.032-5.178,1.903c-2.384,0.872-4.306,1.53-5.763,1.996c-1.453,0.461-3.249,0.933-5.391,1.392
	c-2.159,0.472-4.073,0.704-5.761,0.704c-4.449,0-8.099-1.26-10.936-3.798c-2.838-2.523-4.643-5.785-5.399-9.778
	c-10.278,9.317-21.801,13.98-34.529,13.98c-9.207,0-16.767-2.364-22.668-7.097c-5.908-4.725-8.857-11.079-8.857-19.077
	c0-22.498,21.866-33.891,65.589-34.16v-10.584c0-13.319-6.367-19.981-19.103-19.981c-5.984,0-12.046,1.062-18.181,3.198
	c-6.139,2.129-11.047,4.999-14.728,8.591l-9.435-11.789c12.421-8.654,27.078-12.98,43.956-12.98c11.968,0,21.061,2.825,27.27,8.483
	c6.215,5.666,9.317,13.751,9.317,24.277v49.551c0,2.654,0.347,4.589,1.034,5.79c0.693,1.193,2.035,1.798,4.03,1.798
	C321.278,612.379,324.879,611.445,330.25,609.578z M295.276,585.368v-6.357c-5.678,0-10.553,0.168-14.626,0.492
	c-4.055,0.338-8.813,1.097-14.255,2.287c-5.449,1.197-9.673,3.278-12.664,6.259c-2.99,2.981-4.488,6.782-4.488,11.421
	c0,4.232,1.653,7.414,4.949,9.528c3.304,2.115,7.71,3.177,13.234,3.177c7.82,0,14.417-2.748,19.8-8.247
	C292.583,598.435,295.276,592.253,295.276,585.368z"/>
<path fill="#88563F" stroke="#88563F" stroke-width="7.9374" stroke-miterlimit="10" d="M441.664,624.868h-18.867v-60.926
	c0-3.066-0.081-5.596-0.239-7.596c-0.144-1.989-0.569-4.26-1.265-6.786c-0.688-2.536-1.682-4.567-2.988-6.102
	c-1.301-1.526-3.227-2.825-5.756-3.89c-2.533-1.066-5.56-1.608-9.091-1.608c-10.123,0-20.556,4.405-31.3,13.191v73.716h-18.871
	v-70.319c0-12.788-2.53-22.178-7.593-28.173l20.948-2.391c2.299,5.061,3.757,9.784,4.373,14.184
	c11.502-9.991,23.394-14.979,35.667-14.979c12.114,0,20.972,3.158,26.572,9.483c5.608,6.328,8.409,14.947,8.409,25.87V624.868z"/>
<path fill="#88563F" stroke="#88563F" stroke-width="7.9374" stroke-miterlimit="10" d="M521.649,613.702l3.218,11.192
	c-9.042,2.396-16.634,3.589-22.769,3.589c-9.36,0-16.085-2.161-20.143-6.483c-4.062-4.329-6.1-10.756-6.1-19.285v-63.126h-17.03
	v-9.993c13.348-0.26,22.247-10.584,26.69-30.962h14.509c-3.384,11.982-5.066,21.443-5.066,28.366h29.908l-4.128,12.589h-25.78
	v63.533c0,4.259,0.875,7.422,2.648,9.483c1.763,2.068,4.939,3.101,9.549,3.101C510.674,615.706,515.519,615.04,521.649,613.702z"/>
<path fill="#88563F" stroke="#88563F" stroke-width="7.9374" stroke-miterlimit="10" d="M542.412,618.375l8.062-12.192
	c8.896,5.335,17.025,7.997,24.388,7.997c6.3,0,11.741-1.06,16.334-3.199c4.624-2.128,6.914-5.728,6.914-10.781
	c0-3.999-1.84-7.496-5.522-10.495c-3.682-2.991-8.17-5.554-13.457-7.693c-5.297-2.12-10.565-4.348-15.766-6.689
	c-5.225-2.33-9.675-5.489-13.349-9.49c-3.681-3.99-5.526-8.786-5.526-14.38c0-9.324,3.91-16.482,11.742-21.479
	c7.814-4.992,17.341-7.484,28.526-7.484c11.665,0,21.87,2.326,30.61,6.992l-6.679,12.782c-7.209-4.798-14.498-7.193-21.854-7.193
	c-5.984,0-11.282,1.069-15.883,3.197c-4.604,2.132-6.906,5.597-6.906,10.384c0,3.996,1.845,7.491,5.527,10.49
	c3.682,3.001,8.173,5.528,13.456,7.598c5.306,2.065,10.595,4.26,15.894,6.589c5.283,2.332,9.767,5.561,13.453,9.693
	c3.682,4.126,5.526,9.056,5.526,14.776c0,9.86-3.868,17.153-11.627,21.879c-7.743,4.723-17.607,7.093-29.568,7.093
	C566.422,626.767,554.994,623.968,542.412,618.375z"/>
<path fill="#88563F" stroke="#88563F" stroke-width="7.9374" stroke-miterlimit="10" d="M108.126,457.255l45.734-97.869
	l-18.942,0.43l-26.966,76.213l-33.769-74.752l-20.709,0.498C54.887,364.259,109.221,455.086,108.126,457.255z"/>
<path fill="#88563F" stroke="#88563F" stroke-width="7.9374" stroke-miterlimit="10" d="M226.768,469.872
	c-16.404,0-29.257-5.236-38.553-15.688c-9.303-10.445-13.946-23.062-13.946-37.823c0-14.625,4.695-27.193,14.06-37.716
	c9.372-10.528,22.179-15.788,38.439-15.788c16.555,0,29.484,5.192,38.782,15.581c9.293,10.389,13.945,23.03,13.945,37.923
	c0,14.901-4.652,27.543-13.945,37.927C256.252,464.677,243.323,469.872,226.768,469.872z M226.768,456.953
	c7.654,0,14.011-2.255,19.099-6.769c5.076-4.511,8.518-9.664,10.312-15.473c1.794-5.809,2.694-11.929,2.694-18.352
	c0-6.424-0.938-12.541-2.815-18.341c-1.875-5.814-5.354-10.978-10.438-15.486c-5.065-4.505-11.359-6.769-18.851-6.769
	c-7.505,0-13.795,2.264-18.873,6.769c-5.073,4.509-8.51,9.672-10.305,15.486c-1.791,5.8-2.696,11.917-2.696,18.341
	c0,6.015,1.012,11.963,3.045,17.84c2.028,5.87,5.586,11.133,10.66,15.782C213.68,454.633,219.736,456.953,226.768,456.953z"/>
<path fill="#88563F" stroke="#88563F" stroke-width="7.9374" stroke-miterlimit="10" d="M466.924,466.183l-16.745-1.336
	l0.303-71.313c0-12.244-1.949-12.852-6.261-20.16l-6.327-8.039c6.038-3.935,23.808,8.533,24.61,15.348
	c4.329-5.844,15.25-11.495,23.233-12.947c9.562-1.748,29.598-0.692,44.145,4.389l-11.305,5.884
	c-22.906-4.156-47.213,8.775-52.791,15.872L466.924,466.183z"/>
<path fill="#88563F" stroke="#88563F" stroke-width="7.9374" stroke-miterlimit="10" d="M155.373,325.401h-19.438V261.3
	c0-4.044-0.161-7.329-0.479-9.85c-0.312-2.506-1.071-5.263-2.248-8.265c-1.186-3.001-3.2-5.276-6.044-6.805
	c-2.843-1.537-6.486-2.307-10.908-2.307c-9.164,0-19.993,4.604-32.469,13.821v77.506H64.351c0,0,0.552-179.689,0.552-179.965
	l18.028-3.969l0.856,92.185c12.009-10.059,23.94-15.08,35.784-15.08c23.865,0,35.802,12.355,35.802,37.078V325.401z"/>
<path fill="#88563F" stroke="#88563F" stroke-width="7.9374" stroke-miterlimit="10" d="M228.014,325.336
	c-16.109,0-28.73-5.094-37.858-15.282c-9.128-10.193-13.686-22.474-13.686-36.861c0-14.245,4.598-26.497,13.807-36.759
	c9.204-10.251,21.784-15.38,37.737-15.38c16.262,0,28.96,5.064,38.091,15.185c9.135,10.121,13.692,22.438,13.692,36.955
	c0,14.521-4.557,26.839-13.692,36.96C256.974,320.28,244.276,325.336,228.014,325.336z M228.014,312.756
	c7.518,0,13.775-2.206,18.761-6.601c4.981-4.391,8.358-9.42,10.125-15.08c1.76-5.66,2.647-11.623,2.647-17.882
	c0-6.254-0.922-12.218-2.767-17.873c-1.839-5.661-5.257-10.694-10.232-15.089c-4.989-4.394-11.164-6.589-18.534-6.589
	c-7.356,0-13.538,2.196-18.521,6.589c-4.986,4.395-8.368,9.429-10.129,15.089c-1.763,5.655-2.644,11.619-2.644,17.873
	c0,5.863,0.996,11.654,2.991,17.384c1.983,5.727,5.479,10.862,10.471,15.38C215.17,310.486,221.111,312.756,228.014,312.756z"/>
<path fill="#88563F" stroke="#88563F" stroke-width="7.9374" stroke-miterlimit="10" d="M412.581,308.151l10.794,4.543
	c-1.072,0.409-9.67,6.888-12.053,7.75c-2.379,0.871-4.303,1.53-5.755,1.997c-1.462,0.46-3.268,0.93-5.41,1.396
	c-2.144,0.471-4.059,0.703-5.748,0.703c-4.453,0-8.063-1.269-10.821-3.801c-2.772-2.525-4.531-5.788-5.294-9.783
	c-10.738,9.586-22.479,14.38-35.202,14.38c-12.128,0-20.991-3.163-26.587-9.488c-5.601-6.324-8.404-14.954-8.404-25.868v-54.742
	c0-0.126,0.559-11.402,0.559-11.673l18.545-0.117v61.137c0,3.595,0.194,6.66,0.574,9.192c0.383,2.526,1.143,5.186,2.31,7.986
	c1.143,2.795,3.092,4.961,5.872,6.492c2.755,1.532,6.201,2.294,10.343,2.294c8.593,0,15.97-2.355,22.1-7.09
	c6.124-4.72,9.201-10.816,9.201-18.275v-49.947c0-0.126-0.043-6.591-0.561-8.468c-0.021-0.054,0.088-3.017,0.088-3.288l19.581-0.034
	v79.917c0,2.657,0.344,4.59,1.035,5.792c0.681,1.191,2.029,1.798,4.028,1.798C403.613,310.956,407.206,310.021,412.581,308.151z"/>
<path fill="#88563F" stroke="#88563F" stroke-width="7.9374" stroke-miterlimit="10" d="M434.445,316.593l2.406-11.784
	c8.891,5.326,22.681,7.589,30.052,7.589c6.282,0,11.733-1.071,16.34-3.205c4.589-2.122,6.903-5.72,6.903-10.785
	c0-3.992-1.841-7.488-5.527-10.483c-3.69-3.003-8.166-5.557-13.468-7.696c-5.291-2.126-10.546-4.353-15.759-6.689
	c-5.22-2.328-9.667-5.5-13.355-9.488c-3.67-4-5.522-8.793-5.522-14.389c0-9.316,3.918-16.482,11.742-21.473
	c7.83-4.996,17.329-7.493,28.532-7.493c11.662,0,21.853,2.33,30.619,6.995l-6.683,12.777c-7.204-4.792-14.494-7.184-21.861-7.184
	c-5.993,0-11.271,1.068-15.88,3.193c-4.607,2.134-6.897,5.591-6.897,10.385c0,3.994,1.831,7.499,5.514,10.49
	c3.683,2.996,8.175,5.535,13.469,7.59c5.285,2.069,10.585,4.269,15.875,6.598c5.289,2.33,9.781,5.563,13.455,9.682
	c3.69,4.128,5.535,9.063,5.535,14.79c0,9.856-3.876,17.152-11.619,21.87c-7.747,4.731-17.614,7.097-29.572,7.097
	C458.458,324.982,445.525,324.061,434.445,316.593z"/>
<path fill="#88563F" stroke="#88563F" stroke-width="7.9374" stroke-miterlimit="10" d="M609.356,301.964l8.511,12.027
	c-10.592,7.572-23.478,11.344-38.674,11.344c-16.557,0-29.568-4.823-39.002-14.483c-9.437-9.655-14.152-21.87-14.152-36.654
	c0-9.06,1.724-17.513,5.173-25.375c3.453-7.859,9.054-14.444,16.798-19.777c7.75-5.324,16.998-7.994,27.738-7.994
	c13.355,0,24.086,3.428,32.217,10.292c8.141,6.856,12.197,16.022,12.197,27.471c0,8.522-3.91,12.777-11.731,12.777h-62.134v1.999
	c0,9.534,2.952,18.181,8.854,25.93c5.898,7.759,14.082,11.63,24.506,11.63c5.069,0,10.36-0.833,15.884-2.494
	C601.066,306.996,605.667,304.76,609.356,301.964z M547.663,259.209h48.109c1.69,0,2.761-0.3,3.222-0.898
	c0.46-0.598,0.693-1.701,0.693-3.299c0-5.99-1.999-11.052-5.989-15.179c-3.991-4.12-9.354-6.192-16.105-6.192
	c-7.369,0-13.852,2.597-19.444,7.787C552.539,246.625,549.051,252.555,547.663,259.209z"/>
<path fill="none" stroke="#486E2B" stroke-width="16.1699" stroke-miterlimit="10" d="M656.709,172.083"/>
<g>
	<path fill="#5D7449" d="M54.042,468.663c1.784-0.359,1.577-1.817,3.136-2.202c-6.216-3.941-12.033-8.801-16.415-14.134
		c-3.905-4.74-8.3-11.732-9.39-17.103c0.975,3.678,3.347,7.541,5.963,10.813c3.721,4.667,7.914,9.23,12.56,13.428
		c2.235,2.027,6.25,5.681,9.807,7.634c0.928,0.518,1.988,0.718,2.885,0.863c-0.828-0.39-1.889-0.865-2.391-1.11
		c-1.986-0.984-1.635-2.512-1.142-4.034c0.294-0.981,0.518-1.977,0.673-2.988c0.349-2.546,0.227-5.229-0.622-7.866
		c-2.221-6.869-8.736-10.156-15.389-14.57c-5.458-3.616-11.427-7.462-15.981-11.844c-3.023,6.628-4.929,14.708-2.471,22.347
		c-0.8-1.748-0.98-1.981,1.588,4.004c2.025,4.712,5.011,9.596,9.871,13.26c2.841,2.131,6.311,3.545,9.943,3.917
		C49.214,469.348,51.713,469.131,54.042,468.663C55.825,468.303,51.713,469.131,54.042,468.663z"/>
</g>
<g>
	<g>
		<linearGradient id="SVGID_1_" gradientUnits="userSpaceOnUse" x1="-1.8403" y1="450.7866" x2="119.9036" y2="450.7866">
			<stop  offset="0.0662" style="stop-color:#7A9362"/>
			<stop  offset="0.4156" style="stop-color:#84694A"/>
			<stop  offset="0.6165" style="stop-color:#88563F"/>
		</linearGradient>
		<path fill="url(#SVGID_1_)" d="M119.884,439.379c0,0-0.045,0.291-0.133,0.854c-0.097,0.587-0.181,1.298-0.467,2.722
			c-0.25,1.377-0.604,2.876-1.097,4.66c-0.513,1.774-1.144,3.806-2.056,6c-1.769,4.399-4.534,9.521-8.638,14.575
			c-4.092,5.05-9.515,10.011-16.15,14.077c-6.611,4.096-14.397,7.336-22.928,9.219c-8.618,1.951-18.1,2.26-27.5,0.304
			c-4.695-0.977-9.369-2.519-13.826-4.712c-4.456-2.186-8.696-5.048-12.377-8.625c-3.686-3.56-6.775-7.879-8.855-12.667
			c-2.091-4.784-3.142-10-3.164-15.128c-0.044-5.136,0.868-10.162,2.367-14.879c0.753-2.358,1.635-4.656,2.65-6.869
			c0.245-0.558,0.52-1.099,0.778-1.647l0.197-0.41l0.098-0.205l0.08-0.16l0.052-0.097l0.411-0.77
			c0.248-0.488,0.616-1.088,0.944-1.643c0.33-0.577,0.694-1.065,1.041-1.6c2.861-4.153,6.727-7.549,11.031-9.851
			c4.318-2.298,9.015-3.536,13.621-3.928c4.617-0.385,9.148,0.042,13.416,0.996c2.139,0.482,4.195,1.098,6.213,1.82
			c2.11,0.819,3.956,1.848,5.689,3.055c3.453,2.395,6.284,5.323,8.69,8.363c2.392,3.06,4.341,6.273,5.889,9.507
			c3.074,6.458,4.61,13.08,4.077,18.931c-0.267,2.911-1.093,5.6-2.396,7.779c-1.31,2.176-3.019,3.835-4.77,4.962
			c-3.528,2.285-6.852,2.818-9.004,3.162c-1.096,0.143-1.939,0.222-2.509,0.247c-0.569,0.034-0.862,0.053-0.862,0.053
			s0.293-0.028,0.86-0.082c0.568-0.044,1.407-0.151,2.493-0.329c2.131-0.411,5.418-1.063,8.778-3.408
			c1.669-1.153,3.258-2.811,4.441-4.933c1.177-2.128,1.881-4.72,2.044-7.523c0.327-5.629-1.37-12.002-4.559-18.157
			c-1.603-3.081-3.594-6.126-5.988-8.985c-2.404-2.841-5.205-5.537-8.482-7.647c-1.617-1.057-3.418-1.96-5.199-2.587
			c-1.909-0.617-3.93-1.05-5.956-1.392c-4.065-0.655-8.292-0.785-12.451-0.184c-4.152,0.607-8.226,1.975-11.812,4.171
			c-3.575,2.207-6.624,5.245-8.811,8.868c-0.254,0.456-0.56,0.917-0.775,1.365c-0.232,0.461-0.462,0.859-0.708,1.424l-0.364,0.793
			l-0.298,0.716c-0.209,0.518-0.436,1.029-0.631,1.551c-0.818,2.077-1.499,4.198-2.055,6.339c-1.106,4.28-1.633,8.673-1.358,12.951
			c0.256,4.279,1.354,8.42,3.227,12.137c1.87,3.717,4.501,7.007,7.633,9.712c6.267,5.455,14.325,8.568,22.262,9.771
			c7.984,1.206,15.92,0.502,22.964-1.519c7.157-2.081,13.495-5.25,18.651-8.941c5.188-3.671,9.162-7.876,12.026-11.931
			c2.87-4.066,4.646-7.984,5.727-11.298c0.565-1.65,0.919-3.17,1.209-4.488c0.271-1.322,0.464-2.49,0.55-3.293
			c0.116-0.746,0.186-1.722,0.237-2.264c0.051-0.568,0.077-0.861,0.077-0.861L119.884,439.379z"/>
	</g>
</g>
<path fill="#88563F" stroke="#88563F" stroke-width="7.9374" stroke-miterlimit="10" d="M228.014,325.336
	c-16.109,0-28.73-5.094-37.858-15.282c-9.128-10.193-13.686-22.474-13.686-36.861c0-14.245,4.598-26.497,13.807-36.759
	c9.204-10.251,21.784-15.38,37.737-15.38c16.262,0,28.96,5.064,38.091,15.185c9.135,10.121,13.692,22.438,13.692,36.955
	c0,14.521-4.557,26.839-13.692,36.96C256.974,320.28,244.276,325.336,228.014,325.336z M228.014,312.756
	c7.518,0,13.775-2.206,18.761-6.601c4.981-4.391,8.358-9.42,10.125-15.08c1.76-5.66,2.647-11.623,2.647-17.882
	c0-6.254-0.922-12.218-2.767-17.873c-1.839-5.661-5.257-10.694-10.232-15.089c-4.989-4.394-11.164-6.589-18.534-6.589
	c-7.356,0-13.538,2.196-18.521,6.589c-4.986,4.395-8.368,9.429-10.129,15.089c-1.763,5.655-2.644,11.619-2.644,17.873
	c0,5.863,0.996,11.654,2.991,17.384c1.983,5.727,5.479,10.862,10.471,15.38C215.17,310.486,221.111,312.756,228.014,312.756z"/>
<path fill="#88563F" stroke="#88563F" stroke-width="7.9374" stroke-miterlimit="10" d="M412.581,308.151l10.794,4.543
	c-1.072,0.409-9.67,6.888-12.053,7.75c-2.379,0.871-4.303,1.53-5.755,1.997c-1.462,0.46-3.268,0.93-5.41,1.396
	c-2.144,0.471-4.059,0.703-5.748,0.703c-4.453,0-8.063-1.269-10.821-3.801c-2.772-2.525-4.531-5.788-5.294-9.783
	c-10.738,9.586-22.479,14.38-35.202,14.38c-12.128,0-20.991-3.163-26.587-9.488c-5.601-6.324-8.404-14.954-8.404-25.868v-54.742
	c0-0.126,0.559-11.402,0.559-11.673l18.545-0.117v61.137c0,3.595,0.194,6.66,0.574,9.192c0.383,2.526,1.143,5.186,2.31,7.986
	c1.143,2.795,3.092,4.961,5.872,6.492c2.755,1.532,6.201,2.294,10.343,2.294c8.593,0,15.97-2.355,22.1-7.09
	c6.124-4.72,9.201-10.816,9.201-18.275v-49.947c0-0.126-0.043-6.591-0.561-8.468c-0.021-0.054,0.088-3.017,0.088-3.288l19.581-0.034
	v79.917c0,2.657,0.344,4.59,1.035,5.792c0.681,1.191,2.029,1.798,4.028,1.798C403.613,310.956,407.206,310.021,412.581,308.151z"/>
<path fill="#88563F" stroke="#88563F" stroke-width="7.9374" stroke-miterlimit="10" d="M411.217,453.297l10.793,4.543
	c-1.073,0.412-9.67,6.888-12.05,7.752c-2.382,0.868-4.301,1.526-5.758,1.997c-1.462,0.461-3.268,0.93-5.415,1.396
	c-2.139,0.473-4.058,0.701-5.744,0.701c-4.452,0-8.062-1.268-10.825-3.8c-2.77-2.525-4.526-5.785-5.289-9.781
	c-10.739,9.586-22.479,14.379-35.203,14.379c-12.127,0-20.99-3.163-26.588-9.487c-5.595-6.325-8.397-14.955-8.397-25.869v-54.744
	c0-0.123,0.554-11.398,0.554-11.669l18.544-0.118v61.137c0,3.596,0.195,6.66,0.574,9.195c0.38,2.524,1.147,5.186,2.311,7.983
	c1.142,2.8,3.092,4.965,5.871,6.496c2.756,1.527,6.201,2.288,10.343,2.288c8.593,0,15.97-2.349,22.101-7.09
	c6.126-4.717,9.201-10.813,9.201-18.274v-49.948c0-0.123-0.039-6.588-0.562-8.465c-0.019-0.055,0.089-3.019,0.089-3.289l19.58-0.033
	v79.916c0,2.656,0.346,4.59,1.033,5.79c0.683,1.193,2.031,1.803,4.031,1.803C402.249,456.105,405.841,455.171,411.217,453.297z"/>
<path fill="none" stroke="#486E2B" stroke-width="16.1699" stroke-miterlimit="10" d="M656.709,172.083"/>
<path fill="none" stroke="#486E2B" stroke-width="9.8168" stroke-miterlimit="10" d="M54.948,412.101"/>
<path fill="none" stroke="#6F0C3F" stroke-width="32.5065" stroke-miterlimit="10" d="M670.403,681.3"/>
<path fill="none" stroke="#6F0C3F" stroke-width="19.7348" stroke-miterlimit="10" d="M55.022,410.891"/>
<path fill="none" stroke="#486E2B" stroke-width="14.3934" stroke-miterlimit="10" d="M665.202,168.751"/>
<path fill="#486E2B" stroke="#486E2B" stroke-width="16.2532" stroke-miterlimit="10" d="M59.195,158.262"/>
<path fill="none" stroke="#486E2B" stroke-width="16.2024" stroke-miterlimit="10" d="M658.96,164.882"/>
<path fill="none" stroke="#6F0C3F" stroke-width="22.9855" stroke-miterlimit="10" d="M662.082,158.922"/>
<path fill="#88563F" stroke="#88563F" stroke-width="13.9546" stroke-miterlimit="10" d="M425.927,416.011"/>
<polyline fill="none" stroke="#88563F" stroke-width="23" stroke-miterlimit="10" points="57.207,675.436 659.707,677.436 
	659.707,161.601 354.662,12.775 66.503,150.977 "/>
<linearGradient id="SVGID_2_" gradientUnits="userSpaceOnUse" x1="0" y1="493.731" x2="0" y2="493.731">
	<stop  offset="0.0662" style="stop-color:#7A9362"/>
	<stop  offset="0.2105" style="stop-color:#85765E"/>
	<stop  offset="0.482" style="stop-color:#984558"/>
	<stop  offset="0.6165" style="stop-color:#9F3255"/>
</linearGradient>
<path fill="none" stroke="url(#SVGID_2_)" stroke-width="3.9687" stroke-miterlimit="10" d="M0,493.731"/>
</svg>
