<?xml version="1.0" encoding="utf-8"?>
<!-- Generator: Adobe Illustrator 16.0.0, SVG Export Plug-In . SVG Version: 6.00 Build 0)  -->
<!DOCTYPE svg PUBLIC "-//W3C//DTD SVG 1.1//EN" "http://www.w3.org/Graphics/SVG/1.1/DTD/svg11.dtd">
<svg version="1.1" id="Layer_1" xmlns="http://www.w3.org/2000/svg" xmlns:xlink="http://www.w3.org/1999/xlink" x="0px" y="0px"
	 width="300px" height="300px" viewBox="0 0 300 300" enable-background="new 0 0 300 300" xml:space="preserve">
<path fill="#9F3255" stroke="#9F3255" stroke-width="2" stroke-miterlimit="10" d="M42.125,295.875l-7.25,2.75L33.94,229.82
	c-0.334-8.691-0.498-10.177-0.498-13.557l6.146-0.038c0.935,1.781,1.633,2.489,1.966,4.611c3.809-4.132,8.685-6.199,14.629-6.199
	c6.614,0,11.725,2.211,15.335,6.631c3.604,4.422,5.411,9.586,5.411,15.499c0,6.311-1.941,11.678-5.816,16.099
	c-3.874,4.422-9.384,6.63-16.531,6.63c-5.146,0-9.289-1.265-12.427-3.789v15.687L42.125,295.875z M42.156,226.609v14.461
	c0,3.674,1.004,6.687,3.007,9.041c2.004,2.353,5.076,3.53,9.219,3.53c2.536,0,4.721-0.49,6.561-1.463
	c1.836-0.976,3.256-2.283,4.259-3.921c1.001-1.636,1.736-3.37,2.205-5.206c0.467-1.838,0.7-3.76,0.7-5.771
	c0-4.478-1.168-8.319-3.508-11.539c-2.337-3.211-5.979-4.82-10.919-4.82C49.737,220.923,45.896,222.818,42.156,226.609z"/>
<path fill="#9F3255" stroke="#9F3255" stroke-width="2" stroke-miterlimit="10" d="M95.953,274.637h-8.316v-60.608
	c0-1.68,5.11-4.993,8.316-4.993V274.637L95.953,274.637z"/>
<path fill="#9F3255" stroke="#9F3255" stroke-width="2" stroke-miterlimit="10" d="M151.844,265.339l1.706,4.474
	c-0.472,0.175-1.223,0.445-2.255,0.82c-1.038,0.377-1.875,0.66-2.509,0.861c-0.632,0.198-1.415,0.401-2.347,0.599
	c-0.941,0.204-1.773,0.305-2.508,0.305c-1.937,0-3.527-0.543-4.762-1.638c-1.235-1.087-2.021-2.492-2.351-4.213
	c-4.475,4.015-9.493,6.024-15.034,6.024c-4.009,0-7.301-1.019-9.87-3.06c-2.573-2.036-3.857-4.774-3.857-8.222
	c0-9.695,9.521-14.605,28.559-14.72v-4.562c0-5.739-2.773-8.61-8.318-8.61c-2.605,0-5.245,0.458-7.916,1.378
	c-2.674,0.917-4.811,2.154-6.413,3.703l-4.108-5.081c5.409-3.729,11.791-5.594,19.139-5.594c5.212,0,9.171,1.217,11.874,3.655
	c2.706,2.442,4.057,5.926,4.057,10.463v21.354c0,1.144,0.151,1.978,0.451,2.495c0.301,0.515,0.886,0.775,1.754,0.775
	C147.937,266.546,149.505,266.143,151.844,265.339z M136.616,254.905v-2.739c-2.472,0-4.595,0.072-6.369,0.211
	c-1.765,0.146-3.837,0.474-6.207,0.986c-2.373,0.516-4.212,1.413-5.514,2.697c-1.301,1.285-1.954,2.923-1.954,4.922
	c0,1.823,0.719,3.195,2.155,4.105c1.439,0.912,3.357,1.37,5.762,1.37c3.406,0,6.278-1.185,8.622-3.555
	C135.443,260.536,136.616,257.872,136.616,254.905z"/>
<path fill="#9F3255" stroke="#9F3255" stroke-width="2" stroke-miterlimit="10" d="M200.256,273.552h-8.215v-26.257
	c0-1.321-0.034-2.412-0.104-3.273c-0.062-0.857-0.247-1.837-0.549-2.925c-0.301-1.094-0.734-1.969-1.303-2.631
	c-0.566-0.656-1.404-1.216-2.505-1.676c-1.103-0.46-2.422-0.693-3.96-0.693c-4.407,0-8.95,1.899-13.629,5.686v31.769h-8.216v-30.305
	c0-5.511-1.101-9.559-3.306-12.142l9.121-1.03c1.001,2.181,1.635,4.217,1.904,6.112c5.008-4.305,10.186-6.455,15.529-6.455
	c5.273,0,9.131,1.36,11.57,4.087c2.44,2.727,3.661,6.44,3.661,11.148V273.552L200.256,273.552z"/>
<path fill="#9F3255" stroke="#9F3255" stroke-width="2" stroke-miterlimit="10" d="M235.182,267.115l1.4,4.824
	c-3.937,1.032-7.24,1.546-9.913,1.546c-4.074,0-7.004-0.931-8.771-2.794c-1.769-1.865-2.656-4.635-2.656-8.311v-27.205h-7.414
	v-4.307c5.812-0.112,9.687-4.561,11.621-13.343h6.317c-1.474,5.164-2.205,9.241-2.205,12.225h13.021l-1.798,5.425h-11.224v27.381
	c0,1.835,0.38,3.198,1.152,4.087c0.768,0.891,2.149,1.336,4.157,1.336C230.404,267.979,232.513,267.692,235.182,267.115z"/>
<path fill="#9F3255" stroke="#9F3255" stroke-width="2" stroke-miterlimit="10" d="M244.223,269.13l3.509-5.254
	c3.875,2.299,7.414,3.445,10.621,3.445c2.743,0,5.112-0.456,7.112-1.378c2.013-0.917,3.009-2.469,3.009-4.646
	c0-1.724-0.8-3.23-2.404-4.523c-1.603-1.289-3.557-2.394-5.859-3.315c-2.306-0.913-4.599-1.874-6.864-2.882
	c-2.275-1.004-4.213-2.365-5.813-4.09c-1.603-1.72-2.404-3.787-2.404-6.197c0-4.018,1.703-7.103,5.113-9.257
	c3.401-2.15,7.549-3.225,12.42-3.225c5.079,0,9.521,1.002,13.327,3.014l-2.908,5.507c-3.139-2.066-6.312-3.099-9.515-3.099
	c-2.606,0-4.914,0.46-6.916,1.377c-2.005,0.92-3.007,2.413-3.007,4.476c0,1.723,0.802,3.228,2.406,4.521
	c1.603,1.294,3.559,2.382,5.859,3.275c2.31,0.889,4.613,1.835,6.919,2.839c2.301,1.006,4.255,2.397,5.859,4.177
	c1.603,1.779,2.405,3.903,2.405,6.368c0,4.25-1.685,7.392-5.062,9.429c-3.371,2.036-7.667,3.058-12.874,3.058
	C254.677,272.746,249.701,271.54,244.223,269.13z"/>
<path fill="#9F3255" stroke="#9F3255" stroke-width="2" stroke-miterlimit="10" d="M58.167,190.166L62.333,183l15.448-27.344
	l-7.811,0.253L58,182.999l-0.276-0.501l-14.191-25.731l-9.015,0.292C34.519,157.058,58.1,190.304,58.167,190.166z"/>
<path fill="#9F3255" stroke="#9F3255" stroke-width="2" stroke-miterlimit="10" d="M108.528,201.253
	c-7.142,0-12.739-2.257-16.786-6.761c-4.051-4.501-6.073-9.938-6.073-16.3c0-6.303,2.045-11.72,6.123-16.254
	c4.081-4.537,9.657-6.804,16.736-6.804c7.209,0,12.838,2.237,16.886,6.714c4.046,4.478,6.073,9.925,6.073,16.344
	c0,6.421-2.027,11.869-6.073,16.345C121.366,199.014,115.737,201.253,108.528,201.253z M108.528,195.685
	c3.333,0,6.101-0.972,8.316-2.917c2.21-1.943,3.709-4.165,4.49-6.668c0.782-2.504,1.173-5.141,1.173-7.909s-0.409-5.404-1.227-7.904
	c-0.815-2.506-2.331-4.731-4.544-6.673c-2.205-1.942-4.945-2.919-8.208-2.919c-3.268,0-6.007,0.977-8.218,2.919
	c-2.209,1.942-3.705,4.167-4.486,6.673c-0.78,2.5-1.174,5.136-1.174,7.904c0,2.593,0.44,5.155,1.325,7.688
	c0.883,2.53,2.432,4.798,4.642,6.801C102.83,194.685,105.466,195.685,108.528,195.685z"/>
<path fill="#9F3255" stroke="#9F3255" stroke-width="2" stroke-miterlimit="10" d="M213.096,199.663l-7.291-0.576l0.133-30.731
	c0-5.277-0.85-5.539-2.728-8.689l-2.755-3.464c2.629-1.695,10.366,3.678,10.717,6.615c1.884-2.519,6.64-4.954,10.115-5.58
	c4.163-0.753,12.887-0.298,19.221,1.892l-4.922,2.536c-9.975-1.792-20.558,3.781-22.985,6.84L213.096,199.663z"/>
<path fill="#9F3255" stroke="#9F3255" stroke-width="2" stroke-miterlimit="10" d="M74.974,142.296h-8.463v-27.625
	c0-1.743-0.07-3.158-0.208-4.245c-0.136-1.08-0.467-2.268-0.979-3.562c-0.516-1.293-1.394-2.274-2.632-2.934
	c-1.238-0.662-2.824-0.993-4.75-0.993c-3.99,0-8.705,1.984-14.137,5.956v33.401h-8.462c0,0,0.241-77.438,0.241-77.557l7.849-1.71
	l0.373,39.727c5.229-4.335,10.424-6.499,15.581-6.499c10.392,0,15.589,5.325,15.589,15.979L74.974,142.296L74.974,142.296z"/>
<path fill="#9F3255" stroke="#9F3255" stroke-width="2" stroke-miterlimit="10" d="M107.33,142.842
	c-7.015,0-12.51-2.195-16.484-6.585c-3.975-4.393-5.96-9.685-5.96-15.886c0-6.139,2.002-11.418,6.012-15.841
	c4.007-4.418,9.485-6.628,16.432-6.628c7.08,0,12.609,2.182,16.584,6.543c3.978,4.362,5.961,9.67,5.961,15.927
	c0,6.258-1.984,11.567-5.961,15.928C119.939,140.664,114.41,142.842,107.33,142.842z M107.33,137.422
	c3.273,0,5.998-0.951,8.168-2.845c2.168-1.893,3.639-4.06,4.409-6.499c0.766-2.439,1.152-5.008,1.152-7.707
	c0-2.694-0.401-5.265-1.204-7.702c-0.802-2.439-2.289-4.609-4.455-6.503c-2.173-1.894-4.861-2.839-8.07-2.839
	c-3.204,0-5.896,0.947-8.065,2.839c-2.171,1.894-3.643,4.063-4.409,6.503c-0.768,2.438-1.152,5.008-1.152,7.702
	c0,2.527,0.434,5.022,1.302,7.492c0.864,2.468,2.386,4.681,4.56,6.628C101.736,136.443,104.323,137.422,107.33,137.422z"/>
<path fill="#9F3255" stroke="#9F3255" stroke-width="2" stroke-miterlimit="10" d="M186.386,135.437l4.074,2.075
	c-1.859,1.196-3.586,2.851-4.622,3.222c-1.035,0.375-1.874,0.66-2.505,0.861c-0.637,0.199-1.424,0.401-2.357,0.603
	c-0.934,0.203-1.768,0.303-2.502,0.303c-1.938,0-3.511-0.547-4.713-1.638c-1.205-1.089-1.971-2.495-2.304-4.217
	c-4.675,4.131-9.788,6.197-15.328,6.197c-5.28,0-9.14-1.363-11.576-4.088c-2.439-2.725-3.659-6.444-3.659-11.148v-23.591
	c0-0.055,0.243-4.914,0.243-5.03l8.075-0.051v26.347c0,1.55,0.084,2.871,0.25,3.962c0.167,1.088,0.498,2.234,1.005,3.441
	c0.498,1.204,1.346,2.137,2.557,2.798c1.199,0.66,2.7,0.989,4.504,0.989c3.741,0,6.954-1.015,9.623-3.056
	c2.665-2.034,4.005-4.662,4.005-7.876v-21.525c0-0.054-0.019-2.84-0.243-3.649c-0.009-0.022,0.038-1.3,0.038-1.417l8.526-0.014
	v34.44c0,1.145,0.148,1.979,0.45,2.497c0.297,0.513,0.883,0.774,1.753,0.774C182.481,136.646,184.046,136.243,186.386,135.437z"/>
<path fill="#9F3255" stroke="#9F3255" stroke-width="2" stroke-miterlimit="10" d="M199.389,139.075l1.048-5.079
	c3.872,2.296,9.876,3.271,13.085,3.271c2.735,0,5.107-0.462,7.115-1.382c1.998-0.915,3.006-2.465,3.006-4.647
	c0-1.721-0.803-3.227-2.407-4.518c-1.606-1.294-3.555-2.395-5.864-3.316c-2.303-0.916-4.591-1.876-6.861-2.883
	c-2.273-1.003-4.211-2.37-5.815-4.088c-1.599-1.724-2.404-3.79-2.404-6.201c0-4.016,1.707-7.103,5.113-9.255
	c3.409-2.152,7.546-3.229,12.424-3.229c5.077,0,9.515,1.004,13.332,3.014l-2.911,5.506c-3.137-2.065-6.312-3.096-9.519-3.096
	c-2.609,0-4.908,0.461-6.914,1.376c-2.005,0.919-3.003,2.41-3.003,4.476c0,1.721,0.796,3.231,2.4,4.52
	c1.604,1.292,3.561,2.386,5.865,3.271c2.302,0.892,4.609,1.84,6.912,2.844c2.304,1.004,4.258,2.397,5.858,4.172
	c1.606,1.779,2.409,3.906,2.409,6.374c0,4.248-1.687,7.392-5.057,9.424c-3.375,2.039-7.671,3.059-12.878,3.059
	C209.845,142.69,204.214,142.293,199.389,139.075z"/>
<path fill="#9F3255" stroke="#9F3255" stroke-width="2" stroke-miterlimit="10" d="M274.677,132.771l3.705,5.183
	c-4.611,3.264-10.222,4.889-16.839,4.889c-7.209,0-12.874-2.079-16.982-6.242c-4.107-4.16-6.161-9.425-6.161-15.796
	c0-3.904,0.751-7.547,2.253-10.935c1.504-3.388,3.941-6.225,7.313-8.523c3.374-2.295,7.4-3.445,12.077-3.445
	c5.815,0,10.488,1.477,14.027,4.435c3.546,2.955,5.312,6.905,5.312,11.839c0,3.672-1.703,5.505-5.107,5.505h-27.054v0.862
	c0,4.109,1.285,7.836,3.855,11.175c2.566,3.344,6.131,5.012,10.67,5.012c2.205,0,4.51-0.359,6.916-1.074
	C271.067,134.939,273.07,133.976,274.677,132.771z M247.815,114.345h20.947c0.736,0,1.202-0.13,1.403-0.388
	c0.199-0.258,0.3-0.733,0.3-1.421c0-2.582-0.87-4.763-2.605-6.541c-1.738-1.776-4.074-2.669-7.014-2.669
	c-3.209,0-6.031,1.12-8.465,3.357C249.939,108.922,248.42,111.478,247.815,114.345z"/>
<path fill="#9F3255" stroke="#9F3255" stroke-width="2" stroke-miterlimit="10" d="M107.33,142.842
	c-7.015,0-12.51-2.195-16.484-6.585c-3.975-4.393-5.96-9.685-5.96-15.886c0-6.139,2.002-11.418,6.012-15.841
	c4.007-4.418,9.485-6.628,16.432-6.628c7.08,0,12.609,2.182,16.584,6.543c3.978,4.362,5.961,9.67,5.961,15.927
	c0,6.258-1.984,11.567-5.961,15.928C119.939,140.664,114.41,142.842,107.33,142.842z M107.33,137.422
	c3.273,0,5.998-0.951,8.168-2.845c2.168-1.893,3.639-4.06,4.409-6.499c0.766-2.439,1.152-5.008,1.152-7.707
	c0-2.694-0.401-5.265-1.204-7.702c-0.802-2.439-2.289-4.609-4.455-6.503c-2.173-1.894-4.861-2.839-8.07-2.839
	c-3.204,0-5.896,0.947-8.065,2.839c-2.171,1.894-3.643,4.063-4.409,6.503c-0.768,2.438-1.152,5.008-1.152,7.702
	c0,2.527,0.434,5.022,1.302,7.492c0.864,2.468,2.386,4.681,4.56,6.628C101.736,136.443,104.323,137.422,107.33,137.422z"/>
<path fill="#9F3255" stroke="#9F3255" stroke-width="2" stroke-miterlimit="10" d="M188.84,194.109l4.699,1.958
	c-0.466,0.178-4.21,2.969-5.246,3.341c-1.038,0.374-1.873,0.658-2.508,0.86c-0.637,0.199-1.424,0.4-2.357,0.603
	c-0.932,0.204-1.768,0.301-2.502,0.301c-1.937,0-3.509-0.546-4.712-1.637c-1.208-1.088-1.972-2.493-2.303-4.215
	c-4.677,4.131-9.788,6.196-15.328,6.196c-5.28,0-9.14-1.363-11.577-4.088c-2.437-2.727-3.656-6.445-3.656-11.148v-23.593
	c0-0.053,0.241-4.911,0.241-5.028l8.074-0.051v26.347c0,1.55,0.086,2.871,0.25,3.963c0.165,1.088,0.5,2.235,1.007,3.44
	c0.497,1.206,1.347,2.14,2.557,2.799c1.2,0.657,2.7,0.987,4.504,0.987c3.741,0,6.952-1.014,9.623-3.056
	c2.667-2.034,4.006-4.661,4.006-7.876v-21.525c0-0.053-0.018-2.84-0.246-3.647c-0.007-0.024,0.04-1.303,0.04-1.418l8.526-0.014
	v34.439c0,1.146,0.15,1.979,0.449,2.495c0.298,0.515,0.884,0.778,1.754,0.778C184.936,195.32,186.5,194.917,188.84,194.109z"/>
<polyline fill="none" stroke="#9F3255" stroke-width="10" stroke-miterlimit="10" points="34.25,295 295.908,294.582 295.908,72.28 
	162.466,8.143 36.412,67.702 "/>
<g>
	<path fill="#9F3255" d="M29.5,195.333c0.011,0.011-0.188,0.043-0.415,0.261c-0.235,0.218-0.373,0.693-0.213,1.256
		c0.294,1.128,1.462,2.499,3.199,3.463c1.732,0.986,4.05,1.519,6.489,1.376c1.232-0.066,2.474-0.223,3.67-0.583
		c1.195-0.353,2.337-0.886,3.393-1.564c2.118-1.36,3.873-3.293,5.304-5.275c1.434-1.989,2.56-4.036,3.448-5.834
		c0.887-1.801,1.544-3.354,1.989-4.447c0.434-1.101,0.682-1.729,0.682-1.729l5.464,2.479c0,0-0.345,0.637-0.948,1.751
		c-0.617,1.108-1.521,2.685-2.722,4.521c-1.202,1.832-2.708,3.931-4.608,5.988c-1.896,2.044-4.224,4.079-7.019,5.428
		c-1.391,0.672-2.882,1.153-4.373,1.4c-1.489,0.245-2.971,0.282-4.355,0.135c-2.804-0.288-5.314-1.323-7.042-2.715
		c-1.735-1.374-2.747-3.041-2.875-4.341c-0.079-0.65,0.172-1.18,0.465-1.367C29.32,195.338,29.504,195.349,29.5,195.333z"/>
</g>
<g>
	<path fill="#5D7449" d="M28.903,196.668c0.027-1.14,0.756-1.261,1.678-1.324c0.59-0.054,1.166-0.14,1.729-0.268
		c1.406-0.347,2.742-0.959,3.835-1.927c2.859-2.533,4.008-6.956,4.297-11.237c0.822-3.459-1.095-8.458-0.202-11.665
		c-4.284-0.18-11.301,3.988-13.602,6.516c-1.811,1.991-3.425,4.511-3.863,7.728c-0.251,1.881,0.055,3.926,0.94,5.848
		c0.615,1.347,1.465,2.573,2.394,3.655c0.711,0.838-0.929-1.082,0,0c0.711,0.838,1.395,0.429,2.053,1.146
		c0.178-3.965,0.943-7.914,2.373-11.227c1.269-2.951,3.25-7.124,5.675-8.776c-1.593,1.247-2.575,3.75-3.47,5.75
		c-1.288,2.842-2.38,5.902-3.155,9.126c-0.375,1.545-1.054,4.332-1.001,6.538"/>
</g>
</svg>
