<?xml version="1.0" encoding="utf-8"?>
<!-- Generator: Adobe Illustrator 16.0.0, SVG Export Plug-In . SVG Version: 6.00 Build 0)  -->
<!DOCTYPE svg PUBLIC "-//W3C//DTD SVG 1.1//EN" "http://www.w3.org/Graphics/SVG/1.1/DTD/svg11.dtd">
<svg version="1.1" id="Layer_1" xmlns="http://www.w3.org/2000/svg" xmlns:xlink="http://www.w3.org/1999/xlink" x="0px" y="0px"
	 width="288.691px" height="297.462px" viewBox="-7.877 0 288.691 297.462" enable-background="new -7.877 0 288.691 297.462"
	 xml:space="preserve">
<path fill="#9F3255" stroke="#9F3255" stroke-width="2" stroke-miterlimit="10" d="M22.032,293.271l-7.25,2.75l-0.936-68.805
	c-0.334-8.691-0.498-10.177-0.498-13.557l6.146-0.038c0.935,1.78,1.633,2.489,1.966,4.61c3.809-4.131,8.685-6.198,14.629-6.198
	c6.614,0,11.725,2.211,15.335,6.631c3.604,4.422,5.411,9.586,5.411,15.499c0,6.311-1.941,11.678-5.816,16.1
	c-3.874,4.422-9.384,6.629-16.531,6.629c-5.146,0-9.288-1.265-12.427-3.789v15.688L22.032,293.271z M22.063,224.006v14.461
	c0,3.675,1.004,6.687,3.007,9.041c2.005,2.353,5.076,3.53,9.22,3.53c2.536,0,4.721-0.49,6.561-1.463
	c1.836-0.977,3.256-2.283,4.259-3.922c1.001-1.635,1.736-3.369,2.205-5.205c0.468-1.838,0.7-3.76,0.7-5.771
	c0-4.478-1.168-8.318-3.508-11.539c-2.337-3.211-5.979-4.82-10.919-4.82C29.644,218.319,25.803,220.215,22.063,224.006z"/>
<path fill="#9F3255" stroke="#9F3255" stroke-width="2" stroke-miterlimit="10" d="M75.86,272.033h-8.315v-60.608
	c0-1.68,5.109-4.992,8.315-4.992V272.033L75.86,272.033z"/>
<path fill="#9F3255" stroke="#9F3255" stroke-width="2" stroke-miterlimit="10" d="M131.751,262.735l1.706,4.474
	c-0.473,0.175-1.224,0.444-2.255,0.819c-1.038,0.378-1.875,0.66-2.51,0.861c-0.632,0.198-1.415,0.401-2.347,0.6
	c-0.941,0.203-1.772,0.305-2.508,0.305c-1.938,0-3.527-0.543-4.762-1.639c-1.235-1.086-2.021-2.491-2.352-4.213
	c-4.475,4.016-9.493,6.024-15.034,6.024c-4.009,0-7.301-1.019-9.87-3.06c-2.572-2.036-3.856-4.774-3.856-8.223
	c0-9.695,9.521-14.604,28.559-14.72v-4.562c0-5.739-2.772-8.61-8.317-8.61c-2.605,0-5.245,0.458-7.916,1.378
	c-2.674,0.917-4.812,2.154-6.413,3.703l-4.108-5.081c5.409-3.729,11.791-5.595,19.14-5.595c5.212,0,9.171,1.218,11.873,3.656
	c2.706,2.441,4.058,5.926,4.058,10.463v21.354c0,1.145,0.15,1.979,0.451,2.495c0.301,0.515,0.886,0.774,1.754,0.774
	C127.844,263.942,129.413,263.539,131.751,262.735z M116.523,252.302v-2.738c-2.472,0-4.595,0.071-6.369,0.211
	c-1.765,0.146-3.837,0.474-6.207,0.985c-2.372,0.517-4.212,1.413-5.514,2.697c-1.301,1.285-1.954,2.923-1.954,4.922
	c0,1.823,0.72,3.195,2.155,4.104c1.439,0.912,3.357,1.371,5.762,1.371c3.406,0,6.278-1.186,8.622-3.556
	C115.351,257.933,116.523,255.269,116.523,252.302z"/>
<path fill="#9F3255" stroke="#9F3255" stroke-width="2" stroke-miterlimit="10" d="M180.163,270.948h-8.215V244.69
	c0-1.32-0.034-2.412-0.104-3.272c-0.062-0.856-0.247-1.837-0.549-2.925c-0.301-1.094-0.734-1.969-1.303-2.631
	c-0.566-0.656-1.404-1.217-2.506-1.676c-1.103-0.461-2.422-0.693-3.96-0.693c-4.406,0-8.949,1.898-13.629,5.686v31.77h-8.216
	v-30.305c0-5.512-1.101-9.56-3.306-12.143l9.121-1.029c1.001,2.18,1.635,4.217,1.903,6.111c5.009-4.305,10.187-6.455,15.529-6.455
	c5.273,0,9.131,1.36,11.57,4.087c2.439,2.728,3.661,6.44,3.661,11.148v28.585H180.163z"/>
<path fill="#9F3255" stroke="#9F3255" stroke-width="2" stroke-miterlimit="10" d="M215.089,264.513l1.399,4.823
	c-3.937,1.032-7.239,1.546-9.912,1.546c-4.074,0-7.005-0.931-8.771-2.794c-1.769-1.864-2.656-4.635-2.656-8.312v-27.205h-7.414
	v-4.307c5.812-0.111,9.688-4.561,11.621-13.343h6.317c-1.474,5.164-2.205,9.241-2.205,12.226h13.021l-1.798,5.424h-11.224v27.382
	c0,1.835,0.38,3.198,1.152,4.087c0.768,0.891,2.148,1.336,4.156,1.336C210.312,265.376,212.42,265.089,215.089,264.513z"/>
<path fill="#9F3255" stroke="#9F3255" stroke-width="2" stroke-miterlimit="10" d="M224.13,266.526l3.509-5.254
	c3.875,2.299,7.414,3.444,10.621,3.444c2.743,0,5.112-0.456,7.112-1.378c2.013-0.917,3.009-2.469,3.009-4.646
	c0-1.723-0.8-3.229-2.404-4.522c-1.603-1.289-3.557-2.394-5.858-3.315c-2.307-0.912-4.6-1.873-6.864-2.881
	c-2.275-1.004-4.213-2.365-5.813-4.091c-1.603-1.72-2.403-3.786-2.403-6.196c0-4.019,1.703-7.104,5.112-9.258
	c3.401-2.15,7.55-3.225,12.42-3.225c5.079,0,9.521,1.002,13.327,3.014l-2.908,5.508c-3.139-2.066-6.312-3.1-9.515-3.1
	c-2.605,0-4.914,0.46-6.916,1.377c-2.005,0.92-3.007,2.413-3.007,4.477c0,1.723,0.802,3.228,2.406,4.521
	c1.603,1.294,3.559,2.382,5.858,3.274c2.311,0.89,4.613,1.836,6.919,2.84c2.302,1.006,4.256,2.396,5.859,4.177
	c1.603,1.778,2.405,3.903,2.405,6.368c0,4.25-1.686,7.392-5.062,9.429c-3.371,2.036-7.667,3.058-12.874,3.058
	C234.584,270.144,229.608,268.937,224.13,266.526z"/>
<path fill="#9F3255" stroke="#9F3255" stroke-width="2" stroke-miterlimit="10" d="M38.074,187.562l4.167-7.166l15.447-27.344
	l-7.811,0.254l-11.971,27.09l-0.276-0.502l-14.191-25.73l-9.015,0.292C14.426,154.454,38.007,187.7,38.074,187.562z"/>
<path fill="#9F3255" stroke="#9F3255" stroke-width="2" stroke-miterlimit="10" d="M88.435,198.649
	c-7.142,0-12.739-2.258-16.786-6.762c-4.051-4.5-6.072-9.938-6.072-16.3c0-6.303,2.045-11.72,6.123-16.254
	c4.08-4.537,9.656-6.804,16.735-6.804c7.209,0,12.838,2.236,16.886,6.714c4.047,4.478,6.073,9.925,6.073,16.344
	c0,6.421-2.026,11.869-6.073,16.345C101.273,196.41,95.644,198.649,88.435,198.649z M88.435,193.081
	c3.333,0,6.102-0.973,8.316-2.917c2.21-1.942,3.709-4.165,4.49-6.668c0.781-2.504,1.173-5.142,1.173-7.909s-0.409-5.404-1.228-7.904
	c-0.814-2.506-2.331-4.73-4.544-6.673c-2.205-1.942-4.944-2.919-8.208-2.919c-3.268,0-6.007,0.977-8.218,2.919
	c-2.209,1.942-3.705,4.167-4.486,6.673c-0.779,2.5-1.174,5.137-1.174,7.904c0,2.594,0.44,5.155,1.325,7.688
	c0.883,2.531,2.432,4.799,4.642,6.802C82.737,192.081,85.374,193.081,88.435,193.081z"/>
<path fill="#9F3255" stroke="#9F3255" stroke-width="2" stroke-miterlimit="10" d="M193.003,197.06l-7.291-0.576l0.133-30.73
	c0-5.277-0.85-5.539-2.728-8.689l-2.756-3.463c2.63-1.695,10.366,3.678,10.718,6.614c1.884-2.519,6.64-4.954,10.114-5.58
	c4.163-0.753,12.888-0.298,19.222,1.892l-4.922,2.537c-9.976-1.793-20.559,3.78-22.985,6.84L193.003,197.06z"/>
<path fill="#9F3255" stroke="#9F3255" stroke-width="2" stroke-miterlimit="10" d="M54.881,139.692h-8.463v-27.625
	c0-1.743-0.07-3.158-0.208-4.245c-0.136-1.08-0.467-2.268-0.979-3.562c-0.516-1.293-1.394-2.274-2.632-2.934
	c-1.238-0.662-2.824-0.993-4.75-0.993c-3.99,0-8.705,1.984-14.137,5.956v33.401H15.25c0,0,0.241-77.438,0.241-77.557l7.849-1.71
	l0.373,39.727c5.229-4.335,10.424-6.499,15.581-6.499c10.392,0,15.589,5.325,15.589,15.979L54.881,139.692L54.881,139.692z"/>
<path fill="#9F3255" stroke="#9F3255" stroke-width="2" stroke-miterlimit="10" d="M87.237,140.239
	c-7.015,0-12.51-2.195-16.483-6.585c-3.976-4.393-5.96-9.685-5.96-15.886c0-6.139,2.002-11.418,6.012-15.841
	c4.007-4.418,9.485-6.628,16.432-6.628c7.08,0,12.609,2.182,16.584,6.543c3.979,4.362,5.962,9.67,5.962,15.927
	c0,6.258-1.984,11.567-5.962,15.928C99.846,138.06,94.317,140.239,87.237,140.239z M87.237,134.818c3.273,0,5.998-0.951,8.168-2.845
	c2.169-1.893,3.64-4.06,4.409-6.499c0.767-2.439,1.152-5.008,1.152-7.707c0-2.694-0.401-5.265-1.204-7.702
	c-0.802-2.439-2.289-4.609-4.455-6.503c-2.173-1.894-4.861-2.839-8.07-2.839c-3.203,0-5.896,0.947-8.064,2.839
	c-2.171,1.894-3.644,4.063-4.409,6.503c-0.768,2.438-1.152,5.008-1.152,7.702c0,2.527,0.435,5.022,1.303,7.492
	c0.863,2.468,2.386,4.681,4.56,6.628C81.644,133.84,84.23,134.818,87.237,134.818z"/>
<path fill="#9F3255" stroke="#9F3255" stroke-width="2" stroke-miterlimit="10" d="M166.293,132.833l4.074,2.075
	c-1.859,1.196-3.586,2.851-4.622,3.222c-1.035,0.375-1.874,0.66-2.505,0.861c-0.638,0.199-1.425,0.401-2.357,0.603
	c-0.934,0.203-1.768,0.303-2.502,0.303c-1.938,0-3.511-0.547-4.713-1.638c-1.205-1.089-1.971-2.495-2.304-4.217
	c-4.676,4.131-9.788,6.197-15.328,6.197c-5.28,0-9.141-1.363-11.576-4.088c-2.439-2.725-3.659-6.444-3.659-11.148v-23.591
	c0-0.055,0.243-4.914,0.243-5.03l8.075-0.051v26.347c0,1.55,0.084,2.871,0.25,3.962c0.167,1.088,0.498,2.234,1.005,3.441
	c0.498,1.204,1.346,2.137,2.557,2.798c1.199,0.66,2.7,0.989,4.504,0.989c3.741,0,6.954-1.015,9.623-3.056
	c2.665-2.034,4.005-4.662,4.005-7.876V101.41c0-0.054-0.019-2.84-0.243-3.649c-0.009-0.021,0.038-1.3,0.038-1.417l8.526-0.014v34.44
	c0,1.145,0.148,1.979,0.45,2.497c0.297,0.513,0.883,0.774,1.753,0.774C162.389,134.042,163.953,133.639,166.293,132.833z"/>
<path fill="#9F3255" stroke="#9F3255" stroke-width="2" stroke-miterlimit="10" d="M179.296,136.471l1.048-5.079
	c3.872,2.296,9.876,3.271,13.085,3.271c2.735,0,5.107-0.462,7.115-1.382c1.998-0.915,3.006-2.465,3.006-4.647
	c0-1.721-0.803-3.227-2.407-4.518c-1.605-1.294-3.555-2.395-5.864-3.316c-2.303-0.916-4.591-1.876-6.86-2.883
	c-2.273-1.003-4.211-2.37-5.815-4.088c-1.599-1.724-2.403-3.79-2.403-6.201c0-4.016,1.707-7.103,5.112-9.255
	c3.409-2.152,7.546-3.229,12.424-3.229c5.077,0,9.516,1.004,13.332,3.014l-2.91,5.506c-3.138-2.065-6.312-3.096-9.52-3.096
	c-2.609,0-4.908,0.461-6.914,1.376c-2.005,0.919-3.003,2.41-3.003,4.476c0,1.721,0.796,3.231,2.4,4.52
	c1.604,1.292,3.561,2.386,5.864,3.271c2.303,0.892,4.609,1.84,6.912,2.844c2.305,1.004,4.259,2.397,5.858,4.172
	c1.605,1.779,2.409,3.906,2.409,6.374c0,4.248-1.688,7.392-5.058,9.424c-3.375,2.039-7.671,3.059-12.878,3.059
	C189.752,140.086,184.121,139.689,179.296,136.471z"/>
<path fill="#9F3255" stroke="#9F3255" stroke-width="2" stroke-miterlimit="10" d="M254.584,130.167l3.705,5.183
	c-4.611,3.264-10.223,4.889-16.839,4.889c-7.209,0-12.874-2.079-16.982-6.242c-4.107-4.16-6.161-9.425-6.161-15.796
	c0-3.904,0.751-7.547,2.253-10.935c1.504-3.388,3.941-6.225,7.313-8.523c3.374-2.295,7.399-3.445,12.077-3.445
	c5.814,0,10.487,1.477,14.026,4.435c3.546,2.955,5.312,6.905,5.312,11.839c0,3.672-1.703,5.505-5.107,5.505h-27.054v0.862
	c0,4.109,1.285,7.836,3.854,11.175c2.566,3.344,6.132,5.012,10.67,5.012c2.205,0,4.511-0.359,6.916-1.074
	C250.975,132.335,252.978,131.372,254.584,130.167z M227.723,111.742h20.947c0.736,0,1.202-0.13,1.403-0.388
	c0.198-0.258,0.3-0.733,0.3-1.421c0-2.582-0.87-4.763-2.605-6.541c-1.738-1.776-4.074-2.669-7.014-2.669
	c-3.209,0-6.031,1.12-8.465,3.357C229.847,106.318,228.327,108.874,227.723,111.742z"/>
<path fill="#9F3255" stroke="#9F3255" stroke-width="2" stroke-miterlimit="10" d="M87.237,140.239
	c-7.015,0-12.51-2.195-16.483-6.585c-3.976-4.393-5.96-9.685-5.96-15.886c0-6.139,2.002-11.418,6.012-15.841
	c4.007-4.418,9.485-6.628,16.432-6.628c7.08,0,12.609,2.182,16.584,6.543c3.979,4.362,5.962,9.67,5.962,15.927
	c0,6.258-1.984,11.567-5.962,15.928C99.846,138.06,94.317,140.239,87.237,140.239z M87.237,134.818c3.273,0,5.998-0.951,8.168-2.845
	c2.169-1.893,3.64-4.06,4.409-6.499c0.767-2.439,1.152-5.008,1.152-7.707c0-2.694-0.401-5.265-1.204-7.702
	c-0.802-2.439-2.289-4.609-4.455-6.503c-2.173-1.894-4.861-2.839-8.07-2.839c-3.203,0-5.896,0.947-8.064,2.839
	c-2.171,1.894-3.644,4.063-4.409,6.503c-0.768,2.438-1.152,5.008-1.152,7.702c0,2.527,0.435,5.022,1.303,7.492
	c0.863,2.468,2.386,4.681,4.56,6.628C81.644,133.84,84.23,134.818,87.237,134.818z"/>
<path fill="#9F3255" stroke="#9F3255" stroke-width="2" stroke-miterlimit="10" d="M168.747,191.506l4.698,1.958
	c-0.466,0.178-4.21,2.969-5.245,3.342c-1.038,0.373-1.873,0.657-2.509,0.859c-0.637,0.199-1.424,0.4-2.356,0.604
	s-1.769,0.301-2.502,0.301c-1.938,0-3.509-0.547-4.712-1.637c-1.208-1.089-1.973-2.494-2.304-4.216
	c-4.677,4.132-9.788,6.196-15.327,6.196c-5.28,0-9.141-1.363-11.577-4.088c-2.438-2.727-3.656-6.445-3.656-11.148v-23.593
	c0-0.053,0.241-4.911,0.241-5.028l8.073-0.051v26.348c0,1.549,0.087,2.871,0.25,3.963c0.165,1.088,0.5,2.234,1.008,3.439
	c0.497,1.206,1.347,2.141,2.557,2.799c1.2,0.657,2.7,0.987,4.504,0.987c3.741,0,6.952-1.015,9.623-3.056
	c2.667-2.034,4.006-4.661,4.006-7.877v-21.524c0-0.053-0.018-2.84-0.246-3.647c-0.007-0.023,0.04-1.303,0.04-1.418l8.526-0.014
	v34.439c0,1.146,0.149,1.979,0.449,2.494c0.298,0.516,0.884,0.778,1.754,0.778C164.843,192.717,166.407,192.313,168.747,191.506z"/>
<polyline fill="none" stroke="#9F3255" stroke-width="10" stroke-miterlimit="10" points="14.157,292.396 275.815,291.979 
	275.815,69.677 142.373,5.539 16.319,65.098 "/>
<g>
	<path fill="#9F3255" d="M9.407,192.729c0.011,0.011-0.188,0.043-0.415,0.261c-0.235,0.218-0.373,0.692-0.214,1.256
		c0.295,1.128,1.463,2.499,3.199,3.463c1.732,0.985,4.05,1.519,6.489,1.376c1.232-0.066,2.474-0.223,3.67-0.583
		c1.195-0.353,2.337-0.886,3.393-1.563c2.118-1.36,3.873-3.293,5.305-5.275c1.434-1.989,2.56-4.036,3.448-5.834
		c0.887-1.801,1.544-3.354,1.988-4.447c0.435-1.101,0.683-1.729,0.683-1.729l5.464,2.479c0,0-0.346,0.637-0.948,1.751
		c-0.617,1.108-1.521,2.685-2.722,4.521c-1.202,1.832-2.708,3.932-4.608,5.988c-1.896,2.045-4.224,4.08-7.019,5.428
		c-1.392,0.673-2.883,1.154-4.373,1.4c-1.489,0.245-2.972,0.282-4.355,0.135c-2.804-0.287-5.313-1.322-7.042-2.715
		c-1.734-1.373-2.747-3.041-2.875-4.341c-0.079-0.649,0.172-1.18,0.465-1.366C9.228,192.733,9.411,192.745,9.407,192.729z"/>
</g>
<g>
	<path fill="#5D7449" d="M9.851,196.316c-0.793-1.289,0.006-1.955,1.083-2.702c0.682-0.49,1.322-1.008,1.915-1.565
		c1.462-1.412,2.646-3.071,3.278-4.948c1.646-4.91-0.161-10.673-2.913-15.646c-1.507-4.449-4.568-11.499-5.808-15.723
		c-5.35,2.937-13.778,15.602-14.749,20.099c-0.763,3.541-0.904,7.525,0.896,11.425c1.056,2.275,2.914,4.327,5.386,5.815
		c1.726,1.048,3.652,1.792,5.567,2.314c1.475,0.411-1.915-0.522,0,0c1.475,0.411,2.012-0.543,3.333-0.229
		c-2.656-4.541-4.59-9.494-5.248-14.226c-0.595-4.211-1.205-10.304,0.55-13.918c-1.035,2.555-0.419,6.059-0.059,8.937
		c0.492,4.104,1.379,8.312,2.772,12.464c0.663,1.993,1.857,5.591,3.521,8.005"/>
</g>
</svg>
