<?xml version="1.0" encoding="utf-8"?>
<!-- Generator: Adobe Illustrator 16.0.0, SVG Export Plug-In . SVG Version: 6.00 Build 0)  -->
<!DOCTYPE svg PUBLIC "-//W3C//DTD SVG 1.1//EN" "http://www.w3.org/Graphics/SVG/1.1/DTD/svg11.dtd">
<svg version="1.1" id="Layer_1" xmlns="http://www.w3.org/2000/svg" xmlns:xlink="http://www.w3.org/1999/xlink" x="0px" y="0px"
	 width="286.127px" height="297.597px" viewBox="-5.312 0 286.127 297.597" enable-background="new -5.312 0 286.127 297.597"
	 xml:space="preserve">
<path fill="#9F3255" stroke="#9F3255" stroke-width="2" stroke-miterlimit="10" d="M21.314,296.314l-7.667,0.25l-0.488-56.599
	c-0.334-10.172-0.498-11.657-0.498-15.039l6.146-0.036c0.936,1.778,1.633,2.487,1.966,4.608c3.81-4.131,8.686-6.197,14.629-6.197
	c6.614,0,11.726,2.212,15.335,6.632c3.604,4.422,5.411,9.586,5.411,15.498c0,6.312-1.94,11.678-5.815,16.101
	c-3.874,4.422-9.385,6.629-16.531,6.629c-5.146,0-9.288-1.265-12.427-3.789v15.688L21.314,296.314z M21.377,235.275v14.461
	c0,3.675,1.004,6.687,3.007,9.041c2.005,2.353,5.076,3.529,9.22,3.529c2.536,0,4.722-0.49,6.562-1.464
	c1.836-0.977,3.256-2.282,4.259-3.922c1.001-1.635,1.736-3.369,2.205-5.205c0.468-1.838,0.7-3.76,0.7-5.771
	c0-4.479-1.168-8.316-3.509-11.539c-2.337-3.211-5.979-4.818-10.919-4.818C28.958,229.586,25.117,231.484,21.377,235.275z"/>
<path fill="#9F3255" stroke="#9F3255" stroke-width="2" stroke-miterlimit="10" d="M75.86,272.034h-8.315v-60.609
	c0-1.68,5.109-4.99,8.315-4.99V272.034L75.86,272.034z"/>
<path fill="#9F3255" stroke="#9F3255" stroke-width="2" stroke-miterlimit="10" d="M131.751,264.734l1.706,4.476
	c-0.473,0.174-1.224,0.442-2.255,0.817c-1.038,0.38-1.875,0.66-2.51,0.861c-0.632,0.196-1.415,0.399-2.347,0.6
	c-0.941,0.203-1.772,0.306-2.509,0.306c-1.938,0-3.526-0.543-4.762-1.64c-1.235-1.086-2.021-2.489-2.352-4.213
	c-4.476,4.017-9.493,6.022-15.034,6.022c-4.009,0-7.301-1.02-9.87-3.061c-2.572-2.035-3.856-4.773-3.856-8.223
	c0-9.695,9.521-14.604,28.56-14.721v-4.56c0-5.737-2.772-8.608-8.317-8.608c-2.604,0-5.245,0.457-7.916,1.377
	c-2.674,0.918-4.812,2.153-6.413,3.703l-4.107-5.08c5.408-3.729,11.791-5.597,19.14-5.597c5.212,0,9.171,1.22,11.873,3.656
	c2.706,2.44,4.058,5.926,4.058,10.463v21.354c0,1.146,0.15,1.979,0.451,2.496c0.301,0.516,0.886,0.772,1.754,0.772
	C127.844,265.941,129.413,265.54,131.751,264.734z M116.523,254.301v-2.736c-2.473,0-4.595,0.07-6.369,0.211
	c-1.765,0.146-3.837,0.475-6.207,0.984c-2.372,0.518-4.212,1.412-5.514,2.697c-1.302,1.285-1.954,2.922-1.954,4.922
	c0,1.822,0.72,3.195,2.154,4.104c1.439,0.912,3.357,1.371,5.763,1.371c3.405,0,6.277-1.186,8.622-3.557
	C115.351,259.934,116.523,257.27,116.523,254.301z"/>
<path fill="#9F3255" stroke="#9F3255" stroke-width="2" stroke-miterlimit="10" d="M180.163,270.948h-8.215v-26.259
	c0-1.319-0.033-2.412-0.104-3.271c-0.062-0.856-0.245-1.838-0.549-2.926c-0.301-1.096-0.733-1.971-1.303-2.633
	c-0.566-0.654-1.404-1.217-2.507-1.676c-1.104-0.461-2.422-0.691-3.961-0.691c-4.405,0-8.948,1.896-13.629,5.687v31.771h-8.215
	v-30.307c0-5.514-1.102-9.561-3.307-12.145l9.121-1.027c1.002,2.18,1.635,4.217,1.903,6.109c5.008-4.306,10.187-6.455,15.527-6.455
	c5.273,0,9.133,1.36,11.57,4.088c2.438,2.729,3.66,6.438,3.66,11.147v28.585h0.008V270.948z"/>
<path fill="#9F3255" stroke="#9F3255" stroke-width="2" stroke-miterlimit="10" d="M215.088,264.514l1.399,4.822
	c-3.938,1.031-7.239,1.545-9.911,1.545c-4.074,0-7.007-0.93-8.771-2.793c-1.771-1.863-2.656-4.635-2.656-8.312V232.57h-7.414v-4.307
	c5.812-0.111,9.688-4.562,11.621-13.345h6.315c-1.476,5.164-2.205,9.242-2.205,12.228h13.021l-1.797,5.424h-11.226v27.384
	c0,1.834,0.382,3.196,1.152,4.086c0.768,0.893,2.147,1.336,4.155,1.336C210.312,265.375,212.42,265.088,215.088,264.514z"/>
<path fill="#9F3255" stroke="#9F3255" stroke-width="2" stroke-miterlimit="10" d="M224.129,268.525l3.511-5.254
	c3.875,2.299,7.414,3.442,10.62,3.442c2.742,0,5.111-0.455,7.111-1.377c2.014-0.918,3.01-2.469,3.01-4.646
	c0-1.724-0.801-3.229-2.403-4.521c-1.604-1.289-3.558-2.396-5.857-3.315c-2.307-0.912-4.6-1.873-6.863-2.881
	c-2.273-1.004-4.213-2.365-5.812-4.091c-1.604-1.721-2.401-3.786-2.401-6.196c0-4.019,1.703-7.104,5.11-9.258
	c3.4-2.15,7.552-3.226,12.421-3.226c5.079,0,9.521,1.002,13.327,3.014l-2.907,5.509c-3.14-2.063-6.312-3.101-9.517-3.101
	c-2.604,0-4.914,0.461-6.916,1.377c-2.004,0.92-3.008,2.414-3.008,4.478c0,1.726,0.803,3.229,2.406,4.521
	c1.604,1.295,3.561,2.383,5.857,3.273c2.311,0.891,4.613,1.836,6.918,2.842c2.303,1.006,4.258,2.396,5.858,4.176
	c1.604,1.777,2.404,3.902,2.404,6.369c0,4.25-1.687,7.391-5.062,9.428c-3.371,2.037-7.668,3.06-12.875,3.06
	C234.584,272.145,229.608,270.938,224.129,268.525z"/>
<path fill="#9F3255" stroke="#9F3255" stroke-width="2" stroke-miterlimit="10" d="M39.074,187.562l4.167-7.166l13.438-27.332
	l-9.866,0.248l-7.967,24.918l0,0L24.44,154.165l-9.377,0.063C15.064,154.227,39.007,187.7,39.074,187.562z"/>
<path fill="#9F3255" stroke="#9F3255" stroke-width="2" stroke-miterlimit="10" d="M88.435,198.648
	c-7.143,0-12.739-2.258-16.786-6.762c-4.051-4.501-6.072-9.938-6.072-16.302c0-6.303,2.045-11.719,6.123-16.254
	c4.08-4.537,9.656-6.805,16.735-6.805c7.209,0,12.838,2.236,16.886,6.715c4.047,4.479,6.073,9.926,6.073,16.344
	c0,6.422-2.026,11.869-6.073,16.347C101.273,196.411,95.644,198.648,88.435,198.648z M88.435,193.081
	c3.333,0,6.102-0.974,8.315-2.916c2.21-1.941,3.709-4.166,4.49-6.668c0.781-2.504,1.173-5.144,1.173-7.91
	c0-2.766-0.409-5.402-1.228-7.902c-0.814-2.508-2.331-4.729-4.544-6.674c-2.205-1.941-4.944-2.92-8.208-2.92
	c-3.269,0-6.008,0.979-8.219,2.92c-2.209,1.941-3.705,4.166-4.485,6.674c-0.779,2.5-1.174,5.137-1.174,7.902
	c0,2.596,0.439,5.156,1.324,7.688c0.884,2.531,2.433,4.8,4.643,6.802C82.737,192.081,85.374,193.081,88.435,193.081z"/>
<path fill="#9F3255" stroke="#9F3255" stroke-width="2" stroke-miterlimit="10" d="M194.002,198.061l-7.291-0.576l0.136-30.729
	c0-5.276-0.853-5.539-2.729-8.688l-2.757-3.463c2.63-1.694,10.365,3.679,10.718,6.612c1.885-2.518,6.642-4.952,10.114-5.58
	c4.162-0.752,12.888-0.297,19.222,1.895l-4.922,2.536c-9.976-1.793-20.56,3.779-22.984,6.841L194.002,198.061z"/>
<path fill="#9F3255" stroke="#9F3255" stroke-width="2" stroke-miterlimit="10" d="M54.881,139.692h-8.463v-27.625
	c0-1.743-0.069-3.158-0.208-4.245c-0.136-1.08-0.467-2.268-0.979-3.562c-0.517-1.293-1.395-2.274-2.632-2.934
	c-1.238-0.662-2.824-0.993-4.75-0.993c-3.99,0-8.705,1.984-14.138,5.956v33.401H15.25c0,0,0.241-77.438,0.241-77.557l7.849-1.71
	l0.373,39.727c5.229-4.335,10.425-6.499,15.581-6.499c10.393,0,15.589,5.325,15.589,15.979L54.881,139.692L54.881,139.692z"/>
<path fill="#9F3255" stroke="#9F3255" stroke-width="2" stroke-miterlimit="10" d="M87.237,140.239
	c-7.015,0-12.51-2.195-16.483-6.585c-3.976-4.393-5.96-9.685-5.96-15.886c0-6.139,2.002-11.418,6.013-15.841
	c4.007-4.418,9.484-6.628,16.432-6.628c7.08,0,12.609,2.182,16.584,6.543c3.979,4.362,5.962,9.67,5.962,15.927
	c0,6.258-1.984,11.567-5.962,15.928C99.846,138.06,94.317,140.239,87.237,140.239z M87.237,134.818c3.272,0,5.998-0.951,8.168-2.845
	c2.169-1.893,3.64-4.06,4.409-6.499c0.767-2.439,1.151-5.008,1.151-7.707c0-2.694-0.4-5.265-1.203-7.702
	c-0.803-2.439-2.289-4.609-4.455-6.503c-2.174-1.894-4.861-2.839-8.07-2.839c-3.203,0-5.896,0.947-8.064,2.839
	c-2.171,1.894-3.644,4.063-4.408,6.503c-0.769,2.438-1.152,5.008-1.152,7.702c0,2.527,0.435,5.022,1.303,7.492
	c0.863,2.468,2.386,4.681,4.561,6.628C81.644,133.84,84.23,134.818,87.237,134.818z"/>
<path fill="#9F3255" stroke="#9F3255" stroke-width="2" stroke-miterlimit="10" d="M166.293,132.833l4.074,2.075
	c-1.859,1.196-3.586,2.851-4.623,3.222c-1.035,0.375-1.873,0.66-2.504,0.861c-0.64,0.199-1.427,0.401-2.357,0.603
	c-0.934,0.203-1.768,0.303-2.502,0.303c-1.938,0-3.512-0.547-4.713-1.638c-1.205-1.089-1.971-2.495-2.306-4.217
	c-4.676,4.131-9.787,6.197-15.327,6.197c-5.28,0-9.141-1.363-11.576-4.088c-2.438-2.725-3.659-6.444-3.659-11.148v-23.591
	c0-0.055,0.243-4.914,0.243-5.03l8.075-0.051v26.347c0,1.55,0.084,2.871,0.25,3.962c0.167,1.088,0.498,2.234,1.005,3.441
	c0.498,1.204,1.347,2.137,2.558,2.798c1.198,0.66,2.699,0.989,4.504,0.989c3.74,0,6.955-1.015,9.623-3.056
	c2.666-2.034,4.006-4.662,4.006-7.876V101.41c0-0.054-0.021-2.84-0.244-3.649c-0.008-0.021,0.039-1.3,0.039-1.417l8.523-0.014v34.44
	c0,1.145,0.148,1.979,0.451,2.497c0.297,0.513,0.883,0.774,1.752,0.774C162.39,134.042,163.954,133.639,166.293,132.833z"/>
<path fill="#9F3255" stroke="#9F3255" stroke-width="2" stroke-miterlimit="10" d="M179.295,136.471l1.05-5.079
	c3.87,2.296,9.877,3.271,13.086,3.271c2.733,0,5.104-0.462,7.112-1.382c1.998-0.915,3.006-2.465,3.006-4.647
	c0-1.721-0.803-3.227-2.405-4.518c-1.604-1.294-3.556-2.395-5.863-3.316c-2.303-0.916-4.592-1.876-6.859-2.883
	c-2.271-1.003-4.211-2.37-5.814-4.088c-1.6-1.724-2.401-3.79-2.401-6.201c0-4.016,1.707-7.103,5.11-9.255
	c3.41-2.152,7.547-3.229,12.425-3.229c5.077,0,9.516,1.004,13.332,3.014l-2.91,5.506c-3.138-2.065-6.312-3.096-9.521-3.096
	c-2.608,0-4.908,0.461-6.914,1.376c-2.004,0.919-3.002,2.41-3.002,4.476c0,1.721,0.795,3.231,2.398,4.52
	c1.604,1.292,3.562,2.386,5.863,3.271c2.303,0.892,4.609,1.84,6.912,2.844c2.305,1.004,4.26,2.397,5.856,4.172
	c1.604,1.779,2.408,3.906,2.408,6.374c0,4.248-1.688,7.392-5.058,9.424c-3.375,2.039-7.672,3.059-12.879,3.059
	C189.752,140.086,184.122,139.689,179.295,136.471z"/>
<path fill="#9F3255" stroke="#9F3255" stroke-width="2" stroke-miterlimit="10" d="M254.584,130.167l3.705,5.183
	c-4.61,3.264-10.224,4.889-16.84,4.889c-7.209,0-12.873-2.079-16.982-6.242c-4.104-4.16-6.159-9.425-6.159-15.796
	c0-3.904,0.752-7.547,2.254-10.935c1.504-3.388,3.938-6.225,7.312-8.523c3.373-2.295,7.397-3.445,12.076-3.445
	c5.813,0,10.487,1.477,14.026,4.435c3.545,2.955,5.312,6.905,5.312,11.839c0,3.672-1.703,5.505-5.104,5.505h-27.056v0.862
	c0,4.109,1.285,7.836,3.854,11.175c2.563,3.344,6.131,5.012,10.67,5.012c2.205,0,4.512-0.359,6.916-1.074
	C250.976,132.335,252.978,131.372,254.584,130.167z M227.724,111.742h20.944c0.735,0,1.203-0.13,1.403-0.388
	c0.197-0.258,0.3-0.733,0.3-1.421c0-2.582-0.869-4.763-2.604-6.541c-1.738-1.776-4.074-2.669-7.016-2.669
	c-3.209,0-6.029,1.12-8.465,3.357C229.847,106.318,228.327,108.874,227.724,111.742z"/>
<path fill="#9F3255" stroke="#9F3255" stroke-width="2" stroke-miterlimit="10" d="M87.237,140.239
	c-7.015,0-12.51-2.195-16.483-6.585c-3.976-4.393-5.96-9.685-5.96-15.886c0-6.139,2.002-11.418,6.013-15.841
	c4.007-4.418,9.484-6.628,16.432-6.628c7.08,0,12.609,2.182,16.584,6.543c3.979,4.362,5.962,9.67,5.962,15.927
	c0,6.258-1.984,11.567-5.962,15.928C99.846,138.06,94.317,140.239,87.237,140.239z M87.237,134.818c3.272,0,5.998-0.951,8.168-2.845
	c2.169-1.893,3.64-4.06,4.409-6.499c0.767-2.439,1.151-5.008,1.151-7.707c0-2.694-0.4-5.265-1.203-7.702
	c-0.803-2.439-2.289-4.609-4.455-6.503c-2.174-1.894-4.861-2.839-8.07-2.839c-3.203,0-5.896,0.947-8.064,2.839
	c-2.171,1.894-3.644,4.063-4.408,6.503c-0.769,2.438-1.152,5.008-1.152,7.702c0,2.527,0.435,5.022,1.303,7.492
	c0.863,2.468,2.386,4.681,4.561,6.628C81.644,133.84,84.23,134.818,87.237,134.818z"/>
<path fill="#9F3255" stroke="#9F3255" stroke-width="2" stroke-miterlimit="10" d="M168.747,191.506l4.697,1.957
	c-0.465,0.18-4.209,2.971-5.244,3.344c-1.037,0.373-1.873,0.656-2.51,0.857c-0.637,0.198-1.424,0.399-2.355,0.604
	c-0.932,0.205-1.77,0.301-2.502,0.301c-1.938,0-3.508-0.547-4.711-1.637c-1.209-1.09-1.975-2.494-2.305-4.217
	c-4.678,4.133-9.789,6.195-15.327,6.195c-5.28,0-9.141-1.363-11.577-4.088c-2.438-2.728-3.656-6.445-3.656-11.148v-23.592
	c0-0.053,0.241-4.912,0.241-5.027l8.073-0.053v26.35c0,1.549,0.087,2.871,0.25,3.963c0.165,1.088,0.5,2.232,1.008,3.438
	c0.497,1.207,1.347,2.143,2.558,2.801c1.199,0.656,2.699,0.986,4.504,0.986c3.74,0,6.951-1.017,9.624-3.058
	c2.666-2.032,4.006-4.659,4.006-7.877v-21.522c0-0.053-0.021-2.84-0.246-3.646c-0.008-0.021,0.039-1.305,0.039-1.418l8.524-0.016
	v34.438c0,1.146,0.149,1.979,0.449,2.494c0.299,0.517,0.885,0.776,1.754,0.776C164.842,192.717,166.407,192.312,168.747,191.506z"/>
<polyline fill="none" stroke="#9F3255" stroke-width="10" stroke-miterlimit="10" points="14.157,292.396 275.815,291.979 
	275.815,69.677 142.373,5.539 16.319,65.098 "/>
<g>
	<path fill="#9F3255" d="M9.969,193.7c0.011,0.012-0.188,0.045-0.415,0.282c-0.235,0.233-0.373,0.748-0.214,1.358
		c0.295,1.222,1.463,2.703,3.199,3.746c1.731,1.066,4.05,1.646,6.488,1.49c1.232-0.072,2.475-0.242,3.671-0.63
		c1.194-0.386,2.337-0.962,3.393-1.692c2.118-1.473,3.873-3.563,5.305-5.709c1.435-2.155,2.561-4.371,3.448-6.313
		c0.887-1.952,1.544-3.633,1.988-4.813c0.435-1.191,0.683-1.873,0.683-1.873l5.768,2.688c0,0-0.522,0.732-1.125,1.938
		c-0.616,1.201-1.647,2.861-2.849,4.85c-1.202,1.98-2.708,4.256-4.607,6.48c-1.896,2.213-4.225,4.416-7.02,5.875
		c-1.392,0.729-2.883,1.25-4.373,1.516c-1.489,0.268-2.972,0.307-4.354,0.146c-2.805-0.312-5.313-1.431-7.042-2.938
		c-1.734-1.485-2.747-3.291-2.875-4.699c-0.079-0.7,0.172-1.274,0.465-1.479C9.791,193.704,9.973,193.715,9.969,193.7z"/>
</g>
<g>
	<path fill="#5D7449" d="M10.098,198.13c-0.404-1.063,0.267-1.463,1.151-1.889c0.562-0.282,1.096-0.589,1.604-0.935
		c1.252-0.873,2.336-1.967,3.049-3.294c1.858-3.472,2.283-7.494,1.672-11.901c-0.243-2.852,0.697-11.61,0.361-14.922
		c-2.478,0.886-15.282,9.744-17.599,15.479c-1.031,2.556-1.669,5.521-0.881,8.662c0.462,1.834,1.538,3.598,3.139,5.018
		c1.114,1,2.417,1.793,3.739,2.422c1.019,0.49-1.323-0.629,0,0c1.019,0.49,1.538-0.155,2.457,0.24
		c-1.324-3.725-2.065-7.673-1.91-11.297c0.132-3.222,2.233-10.536,3.994-13.022c-1.096,1.785-2.202,7.263-2.595,9.469
		c-0.191,3.129-0.486,6.28-0.029,9.56c0.214,1.574,0.6,4.415,1.488,6.428"/>
</g>
</svg>
